<?xml version="1.0" encoding="UTF-8"?>
<svg xmlns="http://www.w3.org/2000/svg" viewBox="0 0 334.69 366.19">
  <defs>
    <style>
      .cls-1 {
        fill: #231f20;
        font-family: RocGrotesk-WideMedium, 'Roc Grotesk';
        font-size: 18px;
        font-weight: 500;
      }

      .cls-2 {
        letter-spacing: -.18em;
      }

      .cls-3 {
        fill: #ed2024;
      }

      .cls-4 {
        fill: #ec2426;
      }

      .cls-5 {
        stroke: #000;
        stroke-dasharray: 0 0 1 1;
        stroke-width: 1.5px;
      }

      .cls-5, .cls-6, .cls-7, .cls-8 {
        stroke-miterlimit: 10;
      }

      .cls-5, .cls-7 {
        fill: none;
      }

      .cls-6 {
        stroke-width: .25px;
      }

      .cls-6, .cls-8 {
        fill: #fff;
        stroke: #fff;
      }

      .cls-7 {
        stroke: #010101;
        stroke-dasharray: 0 0 5.91 5.91;
        stroke-width: 2.93px;
      }

      .cls-8 {
        stroke-width: .21px;
      }

      .cls-9 {
        letter-spacing: -.11em;
      }

      .cls-10 {
        fill: #010101;
        fill-rule: evenodd;
      }

      .cls-11 {
        letter-spacing: -.07em;
      }
    </style>
  </defs>
  <g id="Axon_Lines" data-name="Axon Lines">
    <line class="cls-5" x1="1.87" y1="59.02" x2="1.21" y2="311.28"/>
    <line class="cls-5" x1="210.43" y1="57.94" x2="210.42" y2="311.28"/>
    <line class="cls-5" x1="106.38" y1="112.72" x2="105.17" y2="129.83"/>
    <line class="cls-5" x1="105.17" y1="239.39" x2="105.26" y2="256.5"/>
  </g>
  <g id="Policy_Incentives" data-name="Policy Incentives">
    <g>
      <path class="cls-4" d="m168.39,320.34c-10.22,11.42-34.02,1.29-45.04,12.2-6.06,6-17.51,7.18-26.12,7.85-14.95,1.16-30.04-4.06-42.77-11.43-15-8.69-21.07-23.59-2.73-32.68,11.23-5.57,23.86-7.21,35.73-10.66,11.13-3.24,20.4-6.41,31.49-4.9,13.24,1.81,34.88,6.81,45.55,17.49,5.19,5.19,9.21,16.2,3.89,22.13Z"/>
      <path class="cls-7" d="m168.39,320.34c-10.22,11.42-34.02,1.29-45.04,12.2-6.06,6-17.51,7.18-26.12,7.85-14.95,1.16-30.04-4.06-42.77-11.43-15-8.69-21.07-23.59-2.73-32.68,11.23-5.57,23.86-7.21,35.73-10.66,11.13-3.24,20.4-6.41,31.49-4.9,13.24,1.81,34.88,6.81,45.55,17.49,5.19,5.19,9.21,16.2,3.89,22.13Z"/>
    </g>
    <g>
      <path class="cls-10" d="m106.38,292.3c-.35-.18-.77-.18-1.12,0l-34.46,17.9c-.4.21-.66.62-.66,1.08s.25.87.66,1.08l34.46,17.9c.35.18.77.18,1.12,0l34.47-17.9c.4-.21.65-.62.65-1.08s-.25-.87-.65-1.08l-34.47-17.9Zm-.56,2.45l31.83,16.53-31.83,16.53-31.83-16.53,31.83-16.53Z"/>
      <path class="cls-10" d="m140.84,274.4c-.35-.18-.77-.18-1.12,0l-34.46,17.9c-.4.21-.66.63-.66,1.08s.25.87.66,1.08l34.46,17.9c.35.18.77.18,1.12,0l34.46-17.9c.4-.21.66-.63.66-1.08s-.25-.87-.66-1.08l-34.46-17.9Zm-.56,2.45l31.83,16.53-31.83,16.53-31.83-16.53,31.83-16.53Z"/>
      <path class="cls-10" d="m140.84,310.2c-.35-.18-.77-.18-1.12,0l-34.46,17.9c-.4.21-.66.63-.66,1.08s.25.87.66,1.08l34.46,17.9c.35.18.77.18,1.12,0l34.46-17.9c.4-.21.66-.63.66-1.08s-.25-.87-.66-1.08l-34.46-17.9Zm-.56,2.45l31.83,16.53-31.83,16.53-31.83-16.53,31.83-16.53Z"/>
      <path class="cls-10" d="m106.38,328.1c-.35-.18-.77-.18-1.12,0l-34.46,17.9c-.4.21-.66.62-.66,1.08s.25.87.66,1.08l34.46,17.9c.35.18.77.18,1.12,0l34.47-17.9c.4-.21.65-.62.65-1.08s-.25-.87-.65-1.08l-34.47-17.9Zm-.56,2.45l31.83,16.53-31.83,16.53-31.83-16.53,31.83-16.53Z"/>
      <path class="cls-10" d="m71.91,310.2c-.35-.18-.77-.18-1.12,0l-34.46,17.9c-.4.21-.66.63-.66,1.08s.25.87.66,1.08l34.46,17.9c.35.18.77.18,1.12,0l34.47-17.9c.4-.21.65-.63.65-1.08s-.25-.87-.65-1.08l-34.47-17.9Zm-.56,2.45l31.83,16.53-31.83,16.53-31.83-16.53,31.83-16.53Z"/>
      <path class="cls-10" d="m37.45,292.3c-.35-.18-.77-.18-1.12,0L1.87,310.2c-.4.21-.66.62-.66,1.08s.25.87.66,1.08l34.46,17.9c.35.18.77.18,1.12,0l34.46-17.9c.4-.21.66-.62.66-1.08s-.25-.87-.66-1.08l-34.46-17.9Zm-.56,2.45l31.83,16.53-31.83,16.53-31.83-16.53,31.83-16.53Z"/>
      <path class="cls-10" d="m175.3,292.3c-.35-.18-.77-.18-1.12,0l-34.46,17.9c-.4.21-.66.62-.66,1.08s.25.87.66,1.08l34.46,17.9c.35.18.77.18,1.12,0l34.47-17.9c.4-.21.65-.62.65-1.08s-.25-.87-.65-1.08l-34.47-17.9Zm-.56,2.45l31.83,16.53-31.83,16.53-31.83-16.53,31.83-16.53Z"/>
      <path class="cls-10" d="m106.38,256.5c-.35-.18-.77-.18-1.12,0l-34.46,17.9c-.4.21-.66.62-.66,1.08s.25.87.66,1.08l34.46,17.9c.35.18.77.18,1.12,0l34.47-17.9c.4-.21.65-.62.65-1.08s-.25-.87-.65-1.08l-34.47-17.9Zm-.56,2.45l31.83,16.53-31.83,16.53-31.83-16.53,31.83-16.53Z"/>
      <path class="cls-10" d="m71.91,274.4c-.35-.18-.77-.18-1.12,0l-34.46,17.9c-.4.21-.66.63-.66,1.08s.25.87.66,1.08l34.46,17.9c.35.18.77.18,1.12,0l34.47-17.9c.4-.21.65-.63.65-1.08s-.25-.87-.65-1.08l-34.47-17.9Zm-.56,2.45l31.83,16.53-31.83,16.53-31.83-16.53,31.83-16.53Z"/>
    </g>
    <text class="cls-1" transform="translate(226.72 321.9)"><tspan x="0" y="0">POLI</tspan><tspan class="cls-11" x="48.26" y="0">C</tspan><tspan x="62.71" y="0">Y</tspan></text>
  </g>
  <g id="Spatial_Consequences" data-name="Spatial Consequences">
    <g>
      <path class="cls-10" d="m105.17,165.63c-.35-.18-.77-.18-1.12,0l-34.46,17.9c-.4.21-.66.62-.66,1.08s.25.87.66,1.08l34.46,17.9c.35.18.77.18,1.12,0l34.47-17.9c.4-.21.65-.62.65-1.08s-.25-.87-.65-1.08l-34.47-17.9Zm-.56,2.45l31.83,16.53-31.83,16.53-31.83-16.53,31.83-16.53Z"/>
      <path class="cls-10" d="m139.63,147.73c-.35-.18-.77-.18-1.12,0l-34.46,17.9c-.4.21-.66.63-.66,1.08s.25.87.66,1.08l34.46,17.9c.35.18.77.18,1.12,0l34.46-17.9c.4-.21.66-.63.66-1.08s-.25-.87-.66-1.08l-34.46-17.9Zm-.56,2.45l31.83,16.53-31.83,16.53-31.83-16.53,31.83-16.53Z"/>
      <path class="cls-10" d="m139.63,183.53c-.35-.18-.77-.18-1.12,0l-34.46,17.9c-.4.21-.66.63-.66,1.08s.25.87.66,1.08l34.46,17.9c.35.18.77.18,1.12,0l34.46-17.9c.4-.21.66-.63.66-1.08s-.25-.87-.66-1.08l-34.46-17.9Zm-.56,2.45l31.83,16.53-31.83,16.53-31.83-16.53,31.83-16.53Z"/>
      <path class="cls-10" d="m105.17,201.43c-.35-.18-.77-.18-1.12,0l-34.46,17.9c-.4.21-.66.62-.66,1.08s.25.87.66,1.08l34.46,17.9c.35.18.77.18,1.12,0l34.47-17.9c.4-.21.65-.62.65-1.08s-.25-.87-.65-1.08l-34.47-17.9Zm-.56,2.45l31.83,16.53-31.83,16.53-31.83-16.53,31.83-16.53Z"/>
      <path class="cls-10" d="m70.7,183.53c-.35-.18-.77-.18-1.12,0l-34.46,17.9c-.4.21-.66.63-.66,1.08s.25.87.66,1.08l34.46,17.9c.35.18.77.18,1.12,0l34.47-17.9c.4-.21.65-.63.65-1.08s-.25-.87-.65-1.08l-34.47-17.9Zm-.56,2.45l31.83,16.53-31.83,16.53-31.83-16.53,31.83-16.53Z"/>
      <path class="cls-10" d="m36.24,165.63c-.35-.18-.77-.18-1.12,0L.66,183.53c-.4.21-.66.62-.66,1.08s.25.87.66,1.08l34.46,17.9c.35.18.77.18,1.12,0l34.46-17.9c.4-.21.66-.62.66-1.08s-.25-.87-.66-1.08l-34.46-17.9Zm-.56,2.45l31.83,16.53-31.83,16.53-31.83-16.53,31.83-16.53Z"/>
      <path class="cls-10" d="m174.09,165.63c-.35-.18-.77-.18-1.12,0l-34.46,17.9c-.4.21-.66.62-.66,1.08s.25.87.66,1.08l34.46,17.9c.35.18.77.18,1.12,0l34.47-17.9c.4-.21.65-.62.65-1.08s-.25-.87-.65-1.08l-34.47-17.9Zm-.56,2.45l31.83,16.53-31.83,16.53-31.83-16.53,31.83-16.53Z"/>
      <path class="cls-10" d="m105.17,129.83c-.35-.18-.77-.18-1.12,0l-34.46,17.9c-.4.21-.66.62-.66,1.08s.25.87.66,1.08l34.46,17.9c.35.18.77.18,1.12,0l34.47-17.9c.4-.21.65-.62.65-1.08s-.25-.87-.65-1.08l-34.47-17.9Zm-.56,2.45l31.83,16.53-31.83,16.53-31.83-16.53,31.83-16.53Z"/>
      <path class="cls-10" d="m70.7,147.73c-.35-.18-.77-.18-1.12,0l-34.46,17.9c-.4.21-.66.63-.66,1.08s.25.87.66,1.08l34.46,17.9c.35.18.77.18,1.12,0l34.47-17.9c.4-.21.65-.63.65-1.08s-.25-.87-.65-1.08l-34.47-17.9Zm-.56,2.45l31.83,16.53-31.83,16.53-31.83-16.53,31.83-16.53Z"/>
    </g>
    <g>
      <g>
        <path class="cls-3" d="m57.78,161.87c.1,0,.21-.03.3-.08l7.05-4.07c.18-.11.3-.3.3-.52v-3.72s0-.05,0-.07c0-.07-.03-.13-.05-.19,0-.01,0-.03-.02-.04,0-.01-.02-.02-.03-.04-.02-.03-.04-.06-.07-.09,0,0-.01,0-.02-.02-.03-.03-.06-.06-.1-.08,0,0,0,0,0,0h0s-7.03-4.02-7.03-4.02c-.18-.1-.41-.1-.59,0l-7.08,4.02s0,0,0,0c0,0,0,0,0,0-.02.01-.05.03-.07.05-.02.01-.04.03-.06.04-.02.02-.04.05-.06.08-.01.01-.02.03-.03.04-.02.03-.03.07-.05.11,0,.01-.01.02-.01.03,0,.04-.01.08-.01.12,0,.01,0,.03,0,.04h0v3.72c0,.21.11.41.3.52l7.05,4.07s0,0,0,0c.09.05.19.08.3.08h0Z"/>
        <polygon class="cls-3" points="64.24 156.86 58.38 160.24 58.38 157.9 64.24 154.52 64.24 156.86"/>
        <polygon class="cls-3" points="57.81 150.15 63.63 153.49 57.76 156.82 51.93 153.49 57.81 150.15"/>
        <polygon class="cls-3" points="51.33 154.52 57.19 157.9 57.19 160.24 51.33 156.86 51.33 154.52"/>
        <path class="cls-3" d="m44.1,184.77c.09.05.19.08.3.08s.21-.03.3-.08c.18-.11.3-.3.3-.52v-2.9c0-.21-.11-.41-.3-.52l-5.4-3.12c-.18-.11-.41-.11-.6,0-.18.11-.3.3-.3.52v2.9c0,.21.11.41.3.52l5.4,3.12Z"/>
        <polygon class="cls-3" points="39.6 179.27 43.8 181.7 43.8 183.22 39.6 180.79 39.6 179.27"/>
        <path class="cls-3" d="m48.5,187.31l5.4,3.12c.09.05.19.08.3.08s.21-.03.3-.08c.18-.11.3-.3.3-.52v-2.9c0-.21-.11-.41-.3-.52l-5.4-3.12c-.18-.11-.41-.11-.6,0-.18.11-.3.3-.3.52v2.9c0,.21.11.41.3.52h0Z"/>
        <polygon class="cls-3" points="49.39 184.93 53.6 187.36 53.6 188.88 49.39 186.45 49.39 184.93"/>
        <path class="cls-3" d="m48.5,181.05l5.4,3.12c.09.05.19.08.3.08s.21-.03.3-.08c.18-.11.3-.3.3-.52v-5.31c0-.21-.11-.41-.3-.52l-5.4-3.12c-.18-.11-.41-.11-.6,0-.18.11-.3.3-.3.52v5.31c0,.21.11.41.3.52h0Z"/>
        <polygon class="cls-3" points="53.6 182.62 52.09 181.75 52.09 177.82 53.6 178.69 53.6 182.62"/>
        <polygon class="cls-3" points="49.39 176.26 50.9 177.13 50.9 181.06 49.39 180.19 49.39 176.26"/>
        <path class="cls-3" d="m38.7,175.4l5.4,3.12c.09.05.19.08.3.08s.21-.03.3-.08c.18-.11.3-.3.3-.52v-5.31c0-.21-.11-.41-.3-.52l-5.4-3.12c-.18-.11-.41-.11-.6,0-.18.11-.3.3-.3.52v5.31c0,.21.11.41.3.52Z"/>
        <polygon class="cls-3" points="43.8 176.96 42.3 176.09 42.3 172.16 43.8 173.03 43.8 176.96"/>
        <polygon class="cls-3" points="39.6 170.6 41.1 171.47 41.1 175.4 39.6 174.53 39.6 170.6"/>
        <path class="cls-3" d="m90.24,185.52s0-.05,0-.07c0-.03-.02-.06-.04-.1,0-.01-.01-.03-.02-.05-.02-.03-.04-.05-.06-.08-.01-.01-.02-.03-.04-.05-.02-.02-.04-.03-.06-.05-.02-.02-.04-.03-.06-.05l-5.32-3.13v-.81s0-.05-.01-.08c0-.02,0-.05,0-.07,0-.03-.02-.06-.04-.1,0-.01-.01-.03-.02-.05-.02-.03-.04-.05-.06-.08-.01-.01-.02-.03-.04-.05-.02-.02-.04-.03-.06-.05-.02-.02-.04-.03-.06-.05l-4.09-2.4v-19.07l1.12-.64c.18-.11.3-.3.3-.52s-.11-.41-.3-.52l-23.37-13.49c-.18-.11-.41-.11-.6,0l-23.54,13.59c-.18.11-.3.3-.3.52s.11.41.3.52l1.11.64v30.9c0,.21.11.41.3.52l22.04,12.73c.09.05.19.08.3.08s.21-.03.3-.08l3.6-2.08c.06-.01.12-.03.18-.06l4.36-2.52c.06-.03.1-.08.14-.12l3.41-1.97,9.75,5.63c.09.05.19.08.3.08h0s0,0,0,0c.1,0,.21-.03.3-.08l9.99-5.77c.18-.11.3-.3.3-.52v-10.39s0-.05-.01-.08h0Z"/>
        <polygon class="cls-3" points="89.06 190.13 86.45 191.64 86.45 190.83 89.06 189.33 89.06 190.13"/>
        <polygon class="cls-3" points="80.26 197.23 82.86 195.73 82.86 196.54 80.26 198.04 80.26 197.23"/>
        <path class="cls-3" d="m88.47,185.6l-8.81,5.09-8.78-5.07,3.81-2.2v2.29c0,.21.11.41.3.52l4.38,2.53c.09.05.19.08.3.08s.21-.03.3-.08l4.38-2.53c.18-.11.3-.3.3-.52v-2.36l3.84,2.26Z"/>
        <polygon class="cls-3" points="79.71 179.29 82.86 181.14 79.99 182.8 79.66 182.99 76.48 181.15 79.71 179.29"/>
        <polygon class="cls-3" points="79.06 187.19 75.88 185.36 75.88 182.19 79.06 184.02 79.06 187.19"/>
        <polygon class="cls-3" points="80.26 184.02 83.44 182.18 83.44 185.36 80.26 187.19 80.26 184.02"/>
        <polygon class="cls-3" points="79.06 161.03 58.21 173.07 58.21 171.89 79.06 159.85 79.06 161.03"/>
        <polygon class="cls-3" points="57.7 145.2 79.88 158 57.53 170.9 35.36 158.1 57.7 145.2"/>
        <polygon class="cls-3" points="57.02 171.98 57.02 173.07 36.17 161.03 36.17 159.95 57.02 171.98"/>
        <path class="cls-3" d="m36.17,188.27v-25.86l20.85,12.04v25.86s0,1.54,0,1.54l-7.63-4.41v-6.31c0-.21-.11-.41-.3-.52l-4.4-2.54c-.18-.11-.41-.11-.6,0-.18.11-.3.3-.3.52v5.62l-7.63-4.4v-1.55Z"/>
        <polygon class="cls-3" points="48.2 191.48 48.2 196.65 47.19 196.07 47.19 190.9 48.2 191.48"/>
        <polygon class="cls-3" points="46 195.38 44.99 194.8 44.99 189.63 46 190.21 46 195.38"/>
        <path class="cls-3" d="m58.21,201.09v-11.59l4.78-2.76c.29-.16.38-.53.22-.81-.16-.29-.53-.38-.81-.22l-4.18,2.41v-13.69s20.85-12.04,20.85-12.04v15.88l-4.03,2.32s-.04.01-.05.02c-.18.11-.3.3-.3.52h0s0,0,0,.01c0,0,0,0,0,0v.87l-5.19,3s-.09.03-.13.05c-.18.11-.3.3-.3.52v9.98l-2.72,1.57v-6.67c0-.21-.11-.41-.3-.52-.18-.11-.41-.11-.6,0l-4.36,2.52c-.18.11-.3.3-.3.52v7.36s-2.58,1.49-2.58,1.49v-.76s0,0,0,0Z"/>
        <polygon class="cls-3" points="61.99 199.67 61.99 193.35 65.16 191.52 65.16 197.84 61.99 199.67"/>
        <polygon class="cls-3" points="73.07 197.25 73.07 194.71 75.47 196.1 75.47 198.64 73.07 197.25"/>
        <path class="cls-3" d="m79.06,200.73l-2.4-1.38v-3.59c0-.21-.11-.41-.3-.52l-3.6-2.08c-.18-.11-.41-.11-.6,0-.18.11-.3.3-.3.52v2.9l-1.62-.93v-8.99s8.8,5.06,8.8,5.06v9.01Z"/>
        <path class="cls-3" d="m80.26,200.73v-1.31l3.5-2.02c.18-.11.3-.3.3-.52v-2.18c0-.21-.11-.41-.3-.52-.18-.11-.41-.11-.6,0l-2.9,1.68v-4.14s7.67-4.43,7.67-4.43l1.13-.65v1.32l-3.5,2.02c-.18.11-.3.3-.3.52v2.18c0,.21.11.41.3.52.09.05.19.08.3.08s.21-.03.3-.08l2.91-1.68v4.13l-8.8,5.08Z"/>
        <path class="cls-3" d="m69.9,178.2c.09.05.19.08.3.08s.21-.03.3-.08l5.54-3.2c.18-.11.3-.3.3-.52v-6.72c0-.21-.11-.41-.3-.52-.18-.11-.41-.11-.6,0l-5.54,3.2c-.18.11-.3.3-.3.52v6.72c0,.21.11.41.3.52h0Z"/>
        <polygon class="cls-3" points="70.8 174.67 72.38 173.76 72.38 175.74 70.8 176.65 70.8 174.67"/>
        <polygon class="cls-3" points="73.57 175.05 73.57 173.07 75.14 172.16 75.14 174.14 73.57 175.05"/>
        <polygon class="cls-3" points="75.14 170.78 73.57 171.69 73.57 169.71 75.14 168.8 75.14 170.78"/>
        <polygon class="cls-3" points="72.38 170.39 72.38 172.38 70.8 173.29 70.8 171.31 72.38 170.39"/>
        <path class="cls-3" d="m67.67,179.49v-6.72c0-.21-.11-.41-.3-.52-.18-.11-.41-.11-.6,0l-5.54,3.2c-.18.11-.3.3-.3.52v6.72c0,.21.11.41.3.52.09.05.19.08.3.08s.21-.03.3-.08l5.54-3.2c.18-.11.3-.3.3-.52h0Z"/>
        <polygon class="cls-3" points="66.48 175.78 64.9 176.69 64.9 174.71 66.48 173.8 66.48 175.78"/>
        <polygon class="cls-3" points="63.71 175.4 63.71 177.38 62.14 178.29 62.14 176.31 63.71 175.4"/>
        <polygon class="cls-3" points="62.13 179.67 63.71 178.76 63.71 180.74 62.13 181.65 62.13 179.67"/>
        <polygon class="cls-3" points="64.9 180.05 64.9 178.07 66.48 177.16 66.48 179.14 64.9 180.05"/>
      </g>
      <g>
        <path class="cls-6" d="m57.78,161.87c.1,0,.21-.03.3-.08l7.05-4.07c.18-.11.3-.3.3-.52v-3.72s0-.05,0-.07c0-.07-.03-.13-.05-.19,0-.01,0-.03-.02-.04,0-.01-.02-.02-.03-.04-.02-.03-.04-.06-.07-.09,0,0-.01,0-.02-.02-.03-.03-.06-.06-.1-.08,0,0,0,0,0,0h0s-7.03-4.02-7.03-4.02c-.18-.1-.41-.1-.59,0l-7.08,4.02s0,0,0,0c0,0,0,0,0,0-.02.01-.05.03-.07.05-.02.01-.04.03-.06.04-.02.02-.04.05-.06.08-.01.01-.02.03-.03.04-.02.03-.03.07-.05.11,0,.01-.01.02-.01.03,0,.04-.01.08-.01.12,0,.01,0,.03,0,.04h0v3.72c0,.21.11.41.3.52l7.05,4.07s0,0,0,0c.09.05.19.08.3.08h0Zm6.46-5.01l-5.86,3.38v-2.34l5.86-3.38v2.34Zm-6.43-6.71l5.82,3.33-5.87,3.34-5.82-3.33,5.87-3.34Zm-6.48,4.37l5.86,3.38v2.34l-5.86-3.38v-2.34Z"/>
        <path class="cls-6" d="m44.1,184.77c.09.05.19.08.3.08s.21-.03.3-.08c.18-.11.3-.3.3-.52v-2.9c0-.21-.11-.41-.3-.52l-5.4-3.12c-.18-.11-.41-.11-.6,0-.18.11-.3.3-.3.52v2.9c0,.21.11.41.3.52l5.4,3.12Zm-4.5-5.5l4.21,2.43v1.52l-4.21-2.43v-1.52Z"/>
        <path class="cls-6" d="m48.5,187.31l5.4,3.12c.09.05.19.08.3.08s.21-.03.3-.08c.18-.11.3-.3.3-.52v-2.9c0-.21-.11-.41-.3-.52l-5.4-3.12c-.18-.11-.41-.11-.6,0-.18.11-.3.3-.3.52v2.9c0,.21.11.41.3.52h0Zm.89-2.38l4.21,2.43v1.52l-4.21-2.43v-1.52Z"/>
        <path class="cls-6" d="m48.5,181.05l5.4,3.12c.09.05.19.08.3.08s.21-.03.3-.08c.18-.11.3-.3.3-.52v-5.31c0-.21-.11-.41-.3-.52l-5.4-3.12c-.18-.11-.41-.11-.6,0-.18.11-.3.3-.3.52v5.31c0,.21.11.41.3.52h0Zm5.1,1.57l-1.51-.87v-3.93l1.51.87v3.93Zm-4.21-6.36l1.51.87v3.93l-1.51-.87v-3.93Z"/>
        <path class="cls-6" d="m38.7,175.4l5.4,3.12c.09.05.19.08.3.08s.21-.03.3-.08c.18-.11.3-.3.3-.52v-5.31c0-.21-.11-.41-.3-.52l-5.4-3.12c-.18-.11-.41-.11-.6,0-.18.11-.3.3-.3.52v5.31c0,.21.11.41.3.52Zm5.1,1.57l-1.51-.87v-3.93l1.51.87v3.93Zm-4.21-6.36l1.51.87v3.93l-1.51-.87v-3.93Z"/>
        <path class="cls-6" d="m90.24,185.52s0-.05,0-.07c0-.03-.02-.06-.04-.1,0-.01-.01-.03-.02-.05-.02-.03-.04-.05-.06-.08-.01-.01-.02-.03-.04-.05-.02-.02-.04-.03-.06-.05-.02-.02-.04-.03-.06-.05l-5.32-3.13v-.81s0-.05-.01-.08c0-.02,0-.05,0-.07,0-.03-.02-.06-.04-.1,0-.01-.01-.03-.02-.05-.02-.03-.04-.05-.06-.08-.01-.01-.02-.03-.04-.05-.02-.02-.04-.03-.06-.05-.02-.02-.04-.03-.06-.05l-4.09-2.4v-19.07l1.12-.64c.18-.11.3-.3.3-.52s-.11-.41-.3-.52l-23.37-13.49c-.18-.11-.41-.11-.6,0l-23.54,13.59c-.18.11-.3.3-.3.52s.11.41.3.52l1.11.64v30.9c0,.21.11.41.3.52l22.04,12.73c.09.05.19.08.3.08s.21-.03.3-.08l3.6-2.08c.06-.01.12-.03.18-.06l4.36-2.52c.06-.03.1-.08.14-.12l3.41-1.97,9.75,5.63c.09.05.19.08.3.08h0s0,0,0,0c.1,0,.21-.03.3-.08l9.99-5.77c.18-.11.3-.3.3-.52v-10.39s0-.05-.01-.08h0Zm-1.18,4.61l-2.61,1.5v-.81l2.61-1.5v.81Zm-8.8,7.1l2.61-1.5v.81l-2.61,1.5v-.81Zm8.22-11.64l-8.81,5.09-8.78-5.07,3.81-2.2v2.29c0,.21.11.41.3.52l4.38,2.53c.09.05.19.08.3.08s.21-.03.3-.08l4.38-2.53c.18-.11.3-.3.3-.52v-2.36l3.84,2.26Zm-8.77-6.3l3.15,1.85-2.87,1.65-.33.19-3.18-1.83,3.22-1.86Zm-.64,7.9l-3.19-1.84v-3.17s3.19,1.83,3.19,1.83v3.17Zm1.19-3.17l3.19-1.84v3.17l-3.19,1.84v-3.17Zm-1.19-22.99l-20.85,12.04v-1.18l20.85-12.04v1.18Zm-21.36-15.84l22.18,12.8-22.35,12.9-22.18-12.8,22.35-12.9Zm-.68,26.79v1.09l-20.85-12.04v-1.09l20.85,12.04Zm-20.85,16.28v-25.86l20.85,12.04v25.86s0,1.54,0,1.54l-7.63-4.41v-6.31c0-.21-.11-.41-.3-.52l-4.4-2.54c-.18-.11-.41-.11-.6,0-.18.11-.3.3-.3.52v5.62l-7.63-4.4v-1.55Zm12.03,3.21v5.17l-1.01-.58v-5.17l1.01.58Zm-2.2,3.9l-1.01-.58v-5.17l1.01.58v5.17Zm12.21,5.72v-11.59l4.78-2.76c.29-.16.38-.53.22-.81-.16-.29-.53-.38-.81-.22l-4.18,2.41v-13.69s20.85-12.04,20.85-12.04v15.88l-4.03,2.32s-.04.01-.05.02c-.18.11-.3.3-.3.52h0s0,0,0,.01c0,0,0,0,0,0v.87l-5.19,3s-.09.03-.13.05c-.18.11-.3.3-.3.52v9.98l-2.72,1.57v-6.67c0-.21-.11-.41-.3-.52-.18-.11-.41-.11-.6,0l-4.36,2.52c-.18.11-.3.3-.3.52v7.36s-2.58,1.49-2.58,1.49v-.76s0,0,0,0Zm3.78-1.42v-6.33s3.17-1.83,3.17-1.83v6.33l-3.17,1.83Zm11.08-2.42v-2.54l2.4,1.39v2.54s-2.4-1.39-2.4-1.39Zm5.99,3.48l-2.4-1.38v-3.59c0-.21-.11-.41-.3-.52l-3.6-2.08c-.18-.11-.41-.11-.6,0-.18.11-.3.3-.3.52v2.9l-1.62-.93v-8.99s8.8,5.06,8.8,5.06v9.01Zm1.19,0v-1.31l3.5-2.02c.18-.11.3-.3.3-.52v-2.18c0-.21-.11-.41-.3-.52-.18-.11-.41-.11-.6,0l-2.9,1.68v-4.14s7.67-4.43,7.67-4.43l1.13-.65v1.32l-3.5,2.02c-.18.11-.3.3-.3.52v2.18c0,.21.11.41.3.52.09.05.19.08.3.08s.21-.03.3-.08l2.91-1.68v4.13l-8.8,5.08Z"/>
        <path class="cls-6" d="m69.9,178.2c.09.05.19.08.3.08s.21-.03.3-.08l5.54-3.2c.18-.11.3-.3.3-.52v-6.72c0-.21-.11-.41-.3-.52-.18-.11-.41-.11-.6,0l-5.54,3.2c-.18.11-.3.3-.3.52v6.72c0,.21.11.41.3.52h0Zm.89-3.53l1.58-.91v1.99l-1.58.91v-1.98Zm2.77.39v-1.99l1.58-.91v1.99l-1.58.91Zm1.58-4.27l-1.58.91v-1.99l1.58-.91v1.99Zm-2.77-.39v1.99l-1.58.91v-1.98l1.58-.91Z"/>
        <path class="cls-6" d="m67.67,179.49v-6.72c0-.21-.11-.41-.3-.52-.18-.11-.41-.11-.6,0l-5.54,3.2c-.18.11-.3.3-.3.52v6.72c0,.21.11.41.3.52.09.05.19.08.3.08s.21-.03.3-.08l5.54-3.2c.18-.11.3-.3.3-.52h0Zm-1.19-3.7l-1.58.91v-1.98l1.58-.91v1.99Zm-2.77-.39v1.99l-1.58.91v-1.98l1.58-.91Zm-1.58,4.27l1.58-.91v1.98l-1.58.91v-1.99Zm2.77.39v-1.99l1.58-.91v1.98l-1.58.91Z"/>
      </g>
    </g>
    <g>
      <g>
        <path class="cls-3" d="m154.67,159.45s0-.01,0-.02c-.02-.07-.05-.14-.1-.21-.01-.02-.02-.03-.03-.04-.05-.06-.1-.11-.17-.15,0,0,0,0,0,0h0s0,0,0,0h0l-20.7-12.4v-1.02l.21-.12c.21-.12.34-.34.34-.59s-.13-.46-.34-.59l-7.4-4.27c-.21-.12-.47-.12-.68,0l-7.45,4.3c-.21.12-.34.34-.34.59s.13.46.34.59l.21.12v2.43l-7.65,4.33s0,0,0,0c0,0,0,0,0,0-.07.04-.13.09-.18.15-.01.02-.02.03-.04.05-.04.06-.08.13-.1.2,0,0,0,0,0,.01-.02.06-.02.12-.02.18v1.73l-4.84,2.59s0,0,0,0c0,0,0,0-.01,0-.07.04-.12.09-.17.15-.01.01-.02.03-.03.04-.04.06-.07.12-.09.18,0,.01,0,.02-.01.03-.02.06-.03.12-.03.19v5.53c0,.24.13.46.34.59l4.85,2.8v1.04l-4.84,2.59s0,0,0,0c0,0,0,0-.01,0-.07.04-.12.09-.17.15-.01.01-.02.03-.03.04-.04.06-.07.12-.09.18,0,.01,0,.02-.01.03-.02.06-.03.12-.03.19v5.53c0,.24.13.46.34.59l4.85,2.8v13.61c0,.24.13.46.34.59l11.55,6.67s.02,0,.03.01l4.39,2.53c.07.04.14.06.22.07l6.92,4c.1.06.22.09.34.09s.23-.03.34-.09l11.17-6.45,3.77,2.18c.1.06.22.09.34.09s.23-.03.34-.09l4.01-2.31c.21-.12.34-.34.34-.58l.05-40.69c0-.05,0-.1-.02-.15h0Z"/>
        <polygon class="cls-3" points="119.91 151.77 119.91 146.46 125.43 149.65 125.43 154.96 119.91 151.77"/>
        <polygon class="cls-3" points="126.78 149.65 132.31 146.46 132.31 151.77 126.78 154.96 126.78 149.65"/>
        <polygon class="cls-3" points="126.13 141.41 132.18 144.9 126.08 148.42 120.04 144.93 126.13 141.41"/>
        <path class="cls-3" d="m118.89,152.74l6.88,3.97c.1.06.22.09.34.09s.23-.03.34-.09l6.88-3.97c.21-.12.34-.34.34-.59v-3.96l19.01,11.39-2.76,1.55-3.67-2.12s0,0,0,0c-.21-.12-.47-.12-.68,0h0l-11.21,6.47-11.21-6.48c-.07-.04-.15-.06-.22-.08l-10.3-5.95,5.95-3.37v2.54c0,.24.13.47.34.59h0Z"/>
        <path class="cls-3" d="m145.69,189.66c-.06.02-.11.04-.16.08l-7.65,3.76v-4.01l8.31-3.66s0,0,0,0l3.03-1.33v3.42l-3.53,1.74Z"/>
        <path class="cls-3" d="m135.02,187.01v-6.06l1.85,1.07s.07.03.11.04c.02,0,.03.02.05.02.06.02.12.02.18.02.09,0,.18-.02.27-.06,0,0,.02,0,.03,0l7.71-3.79v6.54l-7.97,3.51-2.23-1.29Z"/>
        <polygon class="cls-3" points="133.67 180.17 133.67 186.23 123.47 180.34 123.47 174.28 133.67 180.17"/>
        <polygon class="cls-3" points="111.92 154.15 122.12 160.04 122.12 166.4 111.92 160.51 111.92 154.15"/>
        <polygon class="cls-3" points="123.47 160.77 133.67 166.66 133.67 173.07 123.47 167.18 123.47 160.77"/>
        <polygon class="cls-3" points="135.02 166.66 145.22 160.77 145.22 171.63 137.25 175.14 135.02 173.85 135.02 166.66"/>
        <polygon class="cls-3" points="146.58 160.77 149.23 162.3 149.24 169.86 146.59 171.03 146.58 160.77"/>
        <path class="cls-3" d="m145.67,176.52s-.06.03-.09.05l-7.69,3.78v-4.01l8.29-3.65s0,0,0,0l3.05-1.34v3.42l-3.56,1.75Z"/>
        <polygon class="cls-3" points="146.61 184.17 146.6 177.57 149.25 176.26 149.26 183.01 146.61 184.17"/>
        <polygon class="cls-3" points="110.57 159.73 107.44 157.93 110.57 156.25 110.57 159.73"/>
        <polygon class="cls-3" points="106.73 159.08 136.53 176.29 136.53 180.26 106.73 163.05 106.73 159.08"/>
        <polygon class="cls-3" points="122.12 173.5 122.12 179.56 111.92 173.67 111.92 167.61 122.12 173.5"/>
        <polygon class="cls-3" points="110.57 172.89 107.44 171.08 110.57 169.41 110.57 172.89"/>
        <polygon class="cls-3" points="106.73 172.23 136.53 189.44 136.53 193.42 106.73 176.21 106.73 172.23"/>
        <polygon class="cls-3" points="119.05 197.32 119.05 191.1 122.12 192.87 122.12 199.09 119.05 197.32"/>
        <polygon class="cls-3" points="123.47 199.82 123.47 193.65 126.53 195.42 126.53 201.59 123.47 199.82"/>
        <path class="cls-3" d="m127.54,194.44l-4.07-2.35v-4.65l10.2,5.89v12.39l-5.79-3.34v-7.35c0-.24-.13-.46-.34-.59h0Z"/>
        <path class="cls-3" d="m111.92,180.77l10.2,5.89v4.65l-3.4-1.96c-.21-.12-.47-.12-.68,0-.21.12-.34.34-.34.59v6.62l-5.78-3.34v-12.44Z"/>
        <path class="cls-3" d="m135.02,205.71v-11.61l1.85,1.07s.07.03.11.04c.02,0,.03.02.05.02.06.02.12.02.18.02.09,0,.18-.02.27-.06,0,0,.02,0,.03,0l7.71-3.79v8.42l-10.2,5.89Z"/>
        <polygon class="cls-3" points="146.62 190.71 149.26 189.41 149.28 201.44 146.63 199.9 146.62 190.71"/>
        <polygon class="cls-3" points="153.29 199.9 150.63 201.44 150.58 162.31 153.34 160.76 153.29 199.9"/>
      </g>
      <path class="cls-8" d="m154.67,159.45s0-.01,0-.02c-.02-.07-.05-.14-.1-.21-.01-.02-.02-.03-.03-.04-.05-.06-.1-.11-.17-.15,0,0,0,0,0,0h0s0,0,0,0h0l-20.7-12.4v-1.02l.21-.12c.21-.12.34-.34.34-.59s-.13-.46-.34-.59l-7.4-4.27c-.21-.12-.47-.12-.68,0l-7.45,4.3c-.21.12-.34.34-.34.59s.13.46.34.59l.21.12v2.43l-7.65,4.33s0,0,0,0c0,0,0,0,0,0-.07.04-.13.09-.18.15-.01.02-.02.03-.04.05-.04.06-.08.13-.1.2,0,0,0,0,0,.01-.02.06-.02.12-.02.18v1.73l-4.84,2.59s0,0,0,0c0,0,0,0-.01,0-.07.04-.12.09-.17.15-.01.01-.02.03-.03.04-.04.06-.07.12-.09.18,0,.01,0,.02-.01.03-.02.06-.03.12-.03.19v5.53c0,.24.13.46.34.59l4.85,2.8v1.04l-4.84,2.59s0,0,0,0c0,0,0,0-.01,0-.07.04-.12.09-.17.15-.01.01-.02.03-.03.04-.04.06-.07.12-.09.18,0,.01,0,.02-.01.03-.02.06-.03.12-.03.19v5.53c0,.24.13.46.34.59l4.85,2.8v13.61c0,.24.13.46.34.59l11.55,6.67s.02,0,.03.01l4.39,2.53c.07.04.14.06.22.07l6.92,4c.1.06.22.09.34.09s.23-.03.34-.09l11.17-6.45,3.77,2.18c.1.06.22.09.34.09s.23-.03.34-.09l4.01-2.31c.21-.12.34-.34.34-.58l.05-40.69c0-.05,0-.1-.02-.15h0Zm-34.77-7.69v-5.31l5.52,3.19v5.31l-5.52-3.19Zm6.88-2.12l5.53-3.19v5.31l-5.53,3.19v-5.31Zm-.65-8.24l6.04,3.49-6.1,3.52-6.04-3.49,6.1-3.52Zm-7.24,11.33l6.88,3.97c.1.06.22.09.34.09s.23-.03.34-.09l6.88-3.97c.21-.12.34-.34.34-.59v-3.96l19.01,11.39-2.76,1.55-3.67-2.12s0,0,0,0c-.21-.12-.47-.12-.68,0h0l-11.21,6.47-11.21-6.48c-.07-.04-.15-.06-.22-.08l-10.3-5.95,5.95-3.37v2.54c0,.24.13.47.34.59h0Zm26.8,36.92c-.06.02-.11.04-.16.08l-7.65,3.76v-4.01l8.31-3.66s0,0,0,0l3.03-1.33v3.42l-3.53,1.74Zm-10.67-2.65v-6.06l1.85,1.07s.07.03.11.04c.02,0,.03.02.05.02.06.02.12.02.18.02.09,0,.18-.02.27-.06,0,0,.02,0,.03,0l7.71-3.79v6.54l-7.97,3.51-2.23-1.29Zm-1.35-6.84v6.06l-10.2-5.89v-6.06l10.2,5.89Zm-21.75-26.01l10.2,5.89v6.36l-10.2-5.89v-6.36Zm11.55,6.61l10.2,5.89v6.41l-10.2-5.89v-6.41Zm11.55,5.89l10.2-5.89v10.86l-7.97,3.51-2.23-1.29v-7.19Zm11.55-5.89l2.65,1.53v7.56s-2.64,1.17-2.64,1.17v-10.26Zm-.9,15.75s-.06.03-.09.05l-7.69,3.78v-4.01l8.29-3.65s0,0,0,0l3.05-1.34v3.42l-3.56,1.75Zm.94,7.66v-6.61s2.64-1.3,2.64-1.3v6.74s-2.64,1.17-2.64,1.17Zm-36.04-24.44l-3.13-1.8,3.13-1.68v3.48Zm-3.84-.66l29.81,17.21v3.97l-29.81-17.21v-3.97Zm15.39,14.42v6.06l-10.2-5.89v-6.06l10.2,5.89Zm-11.55-.61l-3.13-1.8,3.13-1.68v3.48Zm-3.84-.66l29.81,17.21v3.97l-29.81-17.21v-3.97Zm12.33,25.09v-6.22l3.06,1.77v6.22l-3.06-1.77Zm4.41,2.5v-6.17l3.06,1.77v6.17l-3.06-1.77Zm4.07-5.38l-4.07-2.35v-4.65l10.2,5.89v12.39l-5.79-3.34v-7.35c0-.24-.13-.46-.34-.59h0Zm-15.63-13.68l10.2,5.89v4.65l-3.4-1.96c-.21-.12-.47-.12-.68,0-.21.12-.34.34-.34.59v6.62l-5.78-3.34v-12.44Zm23.1,24.95v-11.61l1.85,1.07s.07.03.11.04c.02,0,.03.02.05.02.06.02.12.02.18.02.09,0,.18-.02.27-.06,0,0,.02,0,.03,0l7.71-3.79v8.42l-10.2,5.89Zm11.59-15l2.65-1.3.02,12.03-2.65-1.53v-9.19Zm6.67,9.19l-2.66,1.53-.05-39.13,2.76-1.55-.05,39.15Z"/>
    </g>
    <text class="cls-1" transform="translate(226.72 189.37)"><tspan x="0" y="0">S</tspan><tspan class="cls-9" x="15.37" y="0">P</tspan><tspan class="cls-2" x="27.88" y="0">A</tspan><tspan x="42.23" y="0">TIAL</tspan></text>
  </g>
  <g id="Impact_on_Renters" data-name="Impact on Renters">
    <g>
      <path class="cls-10" d="m106.38,38.96c-.35-.18-.77-.18-1.12,0l-34.46,17.9c-.4.21-.66.62-.66,1.08s.25.87.66,1.08l34.46,17.9c.35.18.77.18,1.12,0l34.47-17.9c.4-.21.65-.62.65-1.08s-.25-.87-.65-1.08l-34.47-17.9Zm-.56,2.45l31.83,16.53-31.83,16.53-31.83-16.53,31.83-16.53Z"/>
      <path class="cls-10" d="m140.85,21.06c-.35-.18-.77-.18-1.12,0l-34.46,17.9c-.4.21-.66.63-.66,1.08s.25.87.66,1.08l34.46,17.9c.35.18.77.18,1.12,0l34.46-17.9c.4-.21.66-.63.66-1.08s-.25-.87-.66-1.08l-34.46-17.9Zm-.56,2.45l31.83,16.53-31.83,16.53-31.83-16.53,31.83-16.53Z"/>
      <path class="cls-10" d="m140.85,56.86c-.35-.18-.77-.18-1.12,0l-34.46,17.9c-.4.21-.66.63-.66,1.08s.25.87.66,1.08l34.46,17.9c.35.18.77.18,1.12,0l34.46-17.9c.4-.21.66-.63.66-1.08s-.25-.87-.66-1.08l-34.46-17.9Zm-.56,2.45l31.83,16.53-31.83,16.53-31.83-16.53,31.83-16.53Z"/>
      <path class="cls-10" d="m106.38,74.76c-.35-.18-.77-.18-1.12,0l-34.46,17.9c-.4.21-.66.62-.66,1.08s.25.87.66,1.08l34.46,17.9c.35.18.77.18,1.12,0l34.47-17.9c.4-.21.65-.62.65-1.08s-.25-.87-.65-1.08l-34.47-17.9Zm-.56,2.45l31.83,16.53-31.83,16.53-31.83-16.53,31.83-16.53Z"/>
      <path class="cls-10" d="m71.92,56.86c-.35-.18-.77-.18-1.12,0l-34.46,17.9c-.4.21-.66.63-.66,1.08s.25.87.66,1.08l34.46,17.9c.35.18.77.18,1.12,0l34.47-17.9c.4-.21.65-.63.65-1.08s-.25-.87-.65-1.08l-34.47-17.9Zm-.56,2.45l31.83,16.53-31.83,16.53-31.83-16.53,31.83-16.53Z"/>
      <path class="cls-10" d="m37.45,38.96c-.35-.18-.77-.18-1.12,0L1.87,56.86c-.4.21-.66.62-.66,1.08s.25.87.66,1.08l34.46,17.9c.35.18.77.18,1.12,0l34.46-17.9c.4-.21.66-.62.66-1.08s-.25-.87-.66-1.08l-34.46-17.9Zm-.56,2.45l31.83,16.53-31.83,16.53L5.07,57.94l31.83-16.53Z"/>
      <path class="cls-10" d="m175.31,38.96c-.35-.18-.77-.18-1.12,0l-34.46,17.9c-.4.21-.66.62-.66,1.08s.25.87.66,1.08l34.46,17.9c.35.18.77.18,1.12,0l34.47-17.9c.4-.21.65-.62.65-1.08s-.25-.87-.65-1.08l-34.47-17.9Zm-.56,2.45l31.83,16.53-31.83,16.53-31.83-16.53,31.83-16.53Z"/>
      <path class="cls-10" d="m106.38,3.16c-.35-.18-.77-.18-1.12,0l-34.46,17.9c-.4.21-.66.62-.66,1.08s.25.87.66,1.08l34.46,17.9c.35.18.77.18,1.12,0l34.47-17.9c.4-.21.65-.62.65-1.08s-.25-.87-.65-1.08L106.38,3.16Zm-.56,2.45l31.83,16.53-31.83,16.53-31.83-16.53,31.83-16.53Z"/>
      <path class="cls-10" d="m71.92,21.06c-.35-.18-.77-.18-1.12,0l-34.46,17.9c-.4.21-.66.63-.66,1.08s.25.87.66,1.08l34.46,17.9c.35.18.77.18,1.12,0l34.47-17.9c.4-.21.65-.63.65-1.08s-.25-.87-.65-1.08l-34.47-17.9Zm-.56,2.45l31.83,16.53-31.83,16.53-31.83-16.53,31.83-16.53Z"/>
    </g>
    <g id="POLYLINE">
      <path class="cls-3" d="m96.29,25.79c-.2.27-.36.55-.54.83-.1.16-.27.37-.29.56,0,.09.05.16.11.21.17.16.42.27.65.35.19.06.34.07.54.06.17-.01.35,0,.49.09.14.08.22.22.32.33.09.1.21.18.34.23.52.21,1.11.15,1.66.14.29,0,.75.05.83-.29.05-.2,0-.51-.23-.61-.2-.09-.45-.09-.66-.16-.13-.04-.25-.1-.35-.19-.17-.15-.29-.35-.38-.55-.06-.13-.1-.25-.14-.39-.01-.06-.03-.11-.04-.17,0-.02-.02-.06-.01-.08,0-.03,0-.01.02-.03.04-.04.09-.06.1-.11.02-.08-.04-.16-.04-.24,0-.1.09-.18.14-.27.05-.11,0-.23,0-.35.01-.09.08-.14.14-.19.16-.13.26-.31.36-.48.06-.11.11-.23.19-.34.06-.08.13-.15.19-.22.18-.22.3-.47.49-.68.21-.22.44-.42.61-.67.17-.25.3-.53.49-.78.12-.16.25-.26.43-.35.07-.03.12-.06.14-.13.03-.08.03-.13.12-.16.15-.05.29-.06.39-.19.05-.06.05-.14.11-.18.07-.05.18-.05.22-.13.04-.06.02-.15.09-.2.06-.05.14-.03.21-.07.08-.05.11-.18.13-.25.03-.09.01-.18.08-.26.04-.04.09-.06.13-.1.06-.06.1-.15.14-.22.17-.3.34-.61.52-.91.16-.27.34-.54.5-.81.16.25.33.5.5.75.12.18.24.36.31.56.05.13.15.24.2.37.02.05.03.11.04.16.02.06.06.11.07.16.02.07.02.14.04.21.02.06.06.11.08.17.03.08.01.16.05.24.02.04.05.08.07.12.02.06.02.11.02.17,0,.05.02.1.03.15.02.09.02.18.03.27.03.17.12.34.17.5.08.26.14.52.25.77.22.51.48,1.01.65,1.54.08.27.16.54.26.8.04.12.1.23.16.35.04.08.06.17.1.25.02.04.05.08.09.09.05.02.11,0,.16.03.14.1,0,.31.05.44.04.1.18.06.19.18,0,.06-.02.13.03.18.05.05.15.05.19.1.04.05-.01.12,0,.17,0,.05.02.09.06.13.06.07.03.12.04.21,0,.06.03.08.06.13.04.08,0,.21,0,.3,0,.14,0,.28,0,.42,0,.14,0,.28,0,.42,0,.05,0,.1,0,.15.06.18.41.23.57.25.32.04.75.05,1.01-.16.12-.1.22-.21.37-.27.16-.06.34-.04.51-.03.48.04.96-.07,1.39-.28.25-.12.47-.27.68-.44.1-.09.25-.19.3-.32.06-.16-.1-.34-.23-.44-.13-.1-.29-.15-.46-.13-.38.05-.73.23-1.12.15-.23-.05-.44-.17-.65-.28-.07-.04-.25-.09-.27-.15,0-.01,0-.03,0-.05-.04-.18-.34-.25-.47-.35-.12-.09-.2-.22-.28-.34-.07-.11-.07-.16-.08-.28,0-.14-.14-.31-.28-.35-.19-.06-.18-.22-.2-.39-.02-.19-.02-.39-.11-.56-.04-.07-.11-.12-.15-.2-.03-.07-.04-.15-.07-.23-.05-.16-.1-.32-.16-.48-.09-.27-.18-.55-.27-.82-.09-.28-.19-.56-.29-.84-.04-.12-.1-.24-.14-.37,0-.03-.02-.06-.02-.09,0-.04.03-.06.04-.1,0-.06-.03-.13-.06-.18-.05-.1-.1-.15-.1-.27,0-.1,0-.15.05-.22.05-.08.04-.17.04-.26,0-.1.05-.21.02-.31-.02-.07-.08-.12-.09-.2-.01-.08.02-.16,0-.23-.02-.08-.11-.12-.15-.2-.03-.07,0-.14,0-.22,0-.05-.03-.1-.03-.15,0-.08.02-.1-.01-.17-.05-.11-.04-.21-.06-.33-.02-.14-.12-.27-.11-.41,0-.05.04-.1.02-.15-.01-.03-.05-.05-.06-.08-.02-.04-.03-.09-.04-.14-.05-.28-.12-.54-.2-.82-.07-.26-.12-.53-.19-.8-.07-.25-.16-.49-.26-.73-.04-.1-.09-.19-.11-.29-.02-.07-.01-.15-.04-.22-.06-.19-.21-.36-.29-.55-.05-.11-.08-.24-.08-.37.2,0,.11-.11.11-.25,0-.22.06-.44.07-.66.02-.23.01-.47,0-.7,0-.31-.01-.62-.03-.93.56.56,1.25.96,1.93,1.4.28.18.55.35.86.49.15.07.41.14.5.29.04.06.03.12.05.18.02.06.05.11.09.16.2.25.48.45.74.66.13.11.21.23.23.39,0,.06,0,.11-.01.17-.02.08-.07.15-.07.24,0,.05.02.1.08.12.05.02.1-.02.16,0,.04.01.06.04.1.03.05-.01.09-.07.13-.1.06-.04.14-.03.2-.07.03-.02.04-.06.06-.09.04-.08.07-.16.11-.24.07-.14.1-.33.05-.48-.05-.14-.13-.26-.19-.39-.04-.08-.07-.16-.13-.23-.08-.08-.18-.14-.28-.21-.14-.1-.28-.21-.41-.32-.13-.11-.25-.23-.36-.35-.11-.12-.19-.26-.31-.38-.26-.28-.55-.53-.81-.8-.26-.27-.45-.59-.67-.88-.22-.3-.49-.55-.77-.81-.26-.24-.48-.48-.65-.78-.18-.32-.33-.65-.45-.98-.01-.04-.07-.14-.05-.17,0,0,.03-.02.04-.02.02-.02.03-.05.03-.08,0-.11-.05-.24-.08-.35-.04-.15-.05-.3-.07-.45-.03-.33-.09-.62-.24-.93-.14-.29-.29-.6-.53-.83-.07-.07-.16-.13-.25-.18-.02-.01-.11-.05-.12-.07,0,0,.01-.04.02-.05.01-.03.02-.07.04-.1.07-.16.22-.26.32-.4.1-.14.19-.22.38-.22.12,0,.32,0,.41-.09.06-.05.06-.15.06-.22,0-.03-.02-.06-.02-.09,0-.03.02-.06.02-.09,0-.04-.02-.09-.02-.13,0-.06.03-.11.03-.16,0-.04-.02-.07-.02-.11,0-.04.01-.08.02-.12,0-.04,0-.09,0-.13.02-.05.09-.05.08-.13,0-.05-.03-.06.02-.08.05-.02.11,0,.15-.02.19-.04.11-.24.04-.34-.1-.14-.3-.26-.34-.43-.01-.04,0-.08,0-.13,0-.06,0-.12-.02-.18-.05-.25-.19-.49-.31-.71.08,0,.15-.07.22-.1.05-.02.07-.04.07-.1.03-.26-.19-.43-.39-.57-.12-.09-.24-.17-.4-.18-.11-.01-.22,0-.33,0-.13,0-.27-.03-.4-.04-.14,0-.24.04-.37.06-.14.02-.28,0-.41.06-.07.03-.12.07-.19.1-.07.04-.16.06-.23.09-.06.03-.11.06-.16.1-.05.04-.1.05-.16.08-.1.05-.13.15-.17.24-.03.07-.05.13-.09.19-.04.05-.09.1-.12.15-.18.34-.1.8.02,1.14.07.21.15.44.29.62.07.1.13.16.15.28.02.1,0,.28.07.37,0,0,.04.02.04.03.02.03,0,.11-.01.14,0,.06-.02.13-.03.19-.03.14-.06.32-.19.41-.2.15-.35.37-.5.56-.37.44-.72.9-.96,1.42-.12.26-.22.52-.3.79-.06.19-.07.4-.15.59-.02.06-.09.16-.07.23.02.06.03.04,0,.12-.04.13-.09.27-.12.4-.08.3-.13.6-.19.9-.04.24-.1.49-.09.74,0,.17.08.34.08.52,0,.27-.03.53-.02.8.02.53.12,1.07.29,1.57.04.11.14.27.12.37-.02.12-.06.24-.07.36-.01.15-.02.29-.01.44,0,.11.05.23.04.33,0,.08-.06.18-.08.26-.03.14-.05.29-.05.43,0,.17.02.35-.04.52-.03.07-.2.24-.08.32.05.03.12,0,.17,0,.06.01.06.06.1.1.04.04.11.06.17.06-.08.32-.18.64-.27.95-.09.3-.12.6-.17.91,0,.07-.03.14-.06.21-.03.06-.06.1-.07.16-.02.11.01.24-.06.33-.03.03-.06.05-.09.09-.03.05-.04.12-.05.18-.02.08-.07.14-.1.22-.03.07-.04.14-.08.2-.03.06-.09.11-.13.16-.03.04-.04.09-.06.13-.03.07-.11.08-.15.14-.04.07-.02.12-.1.17-.07.05-.14.08-.19.14-.08.08-.13.16-.21.24-.23.22-.47.42-.67.67-.21.26-.39.53-.57.81-.17.28-.33.56-.47.85-.13.27-.24.55-.41.8-.18.25-.42.46-.6.7-.09.11-.15.21-.14.35.01.15-.03.31-.11.44-.07.13-.16.16-.28.22-.11.06-.22.13-.28.25-.03.07-.05.14-.08.2-.01.02-.04.06-.03.08,0,.02,0,.04.02.05Z"/>
    </g>
    <g id="POLYLINE-2" data-name="POLYLINE">
      <path class="cls-3" d="m119.05,85.46c-.19-.32-.48-.55-.69-.86-.12-.18-.11-.36-.16-.56-.05-.17-.19-.26-.31-.38-.31-.32-.53-.73-.77-1.1-.54-.81-1.16-1.56-1.75-2.34-.29-.38-.5-.79-.73-1.2-.22-.39-.53-.69-.8-1.05-.22-.29-.38-.63-.64-.89-.2-.2-.47-.33-.67-.53-.24-.24-.39-.56-.22-.87.09-.16.17-.28.17-.47,0-.43.04-.83.09-1.26.05-.43.06-.85.06-1.28,0-.46.03-.91.06-1.37,0-.17,0-.34.04-.51.02-.12.07-.23.07-.36,0-.08-.01-.17-.03-.25-.01-.04-.03-.08-.04-.13-.03-.09,0-.1.05-.19.5-.8.86-1.68,1.11-2.58.1-.35.18-.7.18-1.06,0-.09-.04-.27-.01-.34,0-.01.04-.02.05-.04.02-.03.03-.04.04-.07.05-.14-.01-.34-.05-.47-.09-.34-.19-.67-.2-1.03-.01-.38.07-.77.01-1.14-.04-.23-.15-.45-.16-.69-.03-.36.09-.74.15-1.09.08-.44.08-.89.11-1.34.03-.4.12-.75.27-1.13.11-.28.19-.55.2-.85.02-.45-.01-.89.02-1.33.04-.44.12-.88.12-1.32,0-.88-.28-1.81-.62-2.62-.33-.78-.84-1.42-1.41-2.04-.08-.08-.15-.16-.23-.25-.06-.06-.28-.23-.29-.3,0-.01.05-.07.05-.09.04-.16-.06-.38-.1-.53-.03-.11-.03-.24-.06-.34-.01-.03-.01-.05-.04-.06-.09-.05-.29.08-.36.11-.03-.07-.05-.14-.06-.21,0-.04-.02-.12,0-.15,0,0,.03,0,.03,0,.03-.03.05-.05.08-.09.05-.09.07-.19.12-.28.07-.13.17-.26.23-.4.12-.25.11-.53.11-.81,0-.3.08-.51.16-.79.05-.18.06-.36.04-.54-.02-.22-.09-.44-.12-.66-.02-.1-.02-.2-.06-.3-.07-.18-.26-.23-.38-.37-.07-.08-.04-.16-.07-.25-.06-.17-.28-.28-.41-.39-.11-.1-.21-.26-.36-.29-.07-.02-.14,0-.21-.01-.09-.01-.16-.06-.24-.09-.18-.05-.37.01-.56-.03-.21-.05-.33-.02-.54-.01-.17,0-.34,0-.5.04-.1.02-.19.08-.29.12-.18.07-.38.11-.57.11-.17,0-.25,0-.38.1-.08.06-.16.13-.25.17-.12.05-.26.06-.37.12-.06.03-.09.06-.06.13.03.09.15.12.21.19.09.1.12.17.26.19-.32.39-.6.94-.58,1.46,0,.25.2.4.09.65-.09.2-.26.35-.41.51-.09.1-.19.21-.2.35,0,.07,0,.13.07.17.09.07.26.04.32.13.07.1-.05.28-.08.36-.04.1,0,.11.02.2.02.08-.03.15,0,.23.02.07.1.12.11.19.02.11-.07.21-.1.31-.03.09-.02.19.02.27.05.11.16.15.27.2.2.08.37.13.5.3.19.24.36.36.61.53.23.15.42.34.58.57.04.05.12.14.13.2.02.08-.11.17-.17.23-.09.09-.18.18-.25.28-.09.12-.18.25-.23.39-.1.28-.1.55-.14.84-.02.2-.13.38-.16.58-.05.29-.03.59-.11.87-.09.32-.3.59-.44.88-.37.75-.21,1.62-.39,2.42-.1.45-.3.86-.46,1.29-.13.35-.2.7-.24,1.07-.06.53-.12,1.05-.18,1.58-.04.37-.07.75,0,1.12.09.45.25.86.29,1.32.04.43.03.86-.01,1.29-.02.19-.07.43,0,.61.03.07.06-.01.04.11-.04.22-.15.45-.24.65-.14.34-.35.61-.55.92-.12.18-.12.4-.13.61-.01.22-.07.56.04.77.02.03.04.06.07.08.11.1.23.19.34.28.17.14.36.22.58.23.05,0,.1,0,.15,0,.09,0,.1-.03.12.06.03.09.03.2.02.29,0,.44-.04.87,0,1.31.04.51.1,1.03.13,1.54.05.87.17,1.81-.04,2.67-.18.74-.31,1.56-.02,2.29.12.3.33.54.45.84.11.26.05.52.06.79.02.27.13.53.15.8.03.29-.09.58-.1.88-.03.44,0,.88-.08,1.32-.08.42-.17.83-.24,1.24-.1.62-.2,1.24-.3,1.86-.06.39-.15.79-.17,1.19,0,.14,0,.28.07.4.06.11.17.2.17.33,0,.1-.05.19-.12.26-.14.15-.3.23-.42.4-.08.13-.18.29-.19.45,0,.03,0,.06,0,.09,0,.08.05.04-.05.12-.73.51-1.53.87-2.4,1.05-.45.09-.83.31-1.09.71-.13.2-.2.45-.03.64.13.15.34.2.53.23.35.06.7.05,1.05.05,1.13,0,2.26.01,3.39,0,.48,0,.96-.02,1.44-.04.2,0,.51.03.7-.08.27-.16.14-.65.09-.88-.05-.22-.1-.44-.13-.67-.02-.13-.04-.22,0-.34.08-.29,0-.62.04-.92.09-.89.54-1.71.63-2.61.11-1.02.25-2.03.39-3.05.14-.95.25-1.89.31-2.85.21.25.42.5.64.75.83.98,1.65,1.98,2.44,2.99.4.51.8,1.02,1.15,1.56.3.46.5.99.79,1.45.16.26.35.38.6.55.15.1.15.15.16.31,0,.04,0,.07.02.1,0,.02.03.04.04.06.03.09,0,.2-.02.3-.08.46-.1.98-.31,1.4-.1.19-.24.35-.42.47-.3.22-.71.29-.97.55-.26.26-.26.68.1.82.4.15.93.09,1.35.07.28-.02.55-.07.8-.21.46-.26.79-.68,1.12-1.09.36-.44.73-.82,1.19-1.16.44-.32.96-.61,1.32-1.04.13-.16.23-.34.19-.54-.05-.34-.33-.61-.58-.82-.42-.37-.86-.71-1.36-.96.01-.12-.04-.22-.1-.31Z"/>
    </g>
    <g id="POLYLINE-3" data-name="POLYLINE">
      <path class="cls-3" d="m153.37,26.29c0,.33-.32.55-.4.86-.02.09-.03.18.06.23.09.06.3-.01.35.09.02.05-.03.12-.02.17.02.07.09.08.12.14.06.12-.03.16-.04.27,0,.11.06.09.12.18.08.12,0,.25.03.38.05.4.64.12.88.12-.02.14-.01.27.02.4.09.32.21.51.14.84-.01.07,0,.17-.03.24-.03.07-.11.13-.16.2-.11.13-.21.28-.28.44-.13.29-.16.61-.33.89-.22.36-.58.62-.75,1.01-.24.54-.17,1.2.25,1.63.2.21.48.4.55.71.07.32.04.69.05,1.01,0,.17.04.39,0,.56-.04.17-.27.32-.41.44-.58.52-1.19,1-1.85,1.42-.34.22-.69.41-1.03.62-.22.14-.43.3-.68.38-.39.12-.8.03-1.19.11-.14.03-.26.12-.39.19-.13.07-.28.12-.39.22-.17.16-.35.55-.12.71.12.08.23.22.35.29.11.06.24.06.36.13.09.05.1.08.22.06.2-.05.39-.2.59-.27.25-.1.51-.16.74-.29.23-.12.43-.28.65-.4.35-.2.73-.37,1.09-.55.72-.35,1.44-.68,2.12-1.09.13.33.03.77.02,1.11-.01.25-.06.55.02.79,0,.02.04.02.05.03.04.12-.02.27-.01.4,0,.09.04.16.06.24.08.39.08.81.09,1.2,0,.09.05.2.03.28-.02.1-.11.19-.14.29-.14.45-.3.88-.45,1.33-.18.57-.3,1.16-.43,1.74-.14.65-.23,1.3-.34,1.95-.1.57-.29,1.12-.38,1.7-.05.29-.09.63,0,.92.06.2.03.4.08.6.04.16.13.19.11.38-.05.46-.08.93-.18,1.39-.17.75-.19,1.55-.29,2.32-.03.24-.04.63-.2.83-.04.05-.11.08-.15.13-.16.21-.15.53-.22.77-.04.14-.15.25-.18.4-.02.09,0,.15-.06.22-.08.12-.25.15-.33.27-.02.03,0,.07-.02.1-.29.54-1.11.75-1.63.89-.44.11-.77.19-1.22.16-.13,0-.29-.02-.4.06-.16.11-.2.4-.13.57.06.16.23.26.37.34.37.22.78.4,1.19.5.51.13,1.04.14,1.56.15.6,0,1.23.06,1.82,0,.18-.02.38-.09.42-.28.03-.13,0-.28,0-.41,0-.21.07-.47.03-.67,0,0,0-.15-.06-.12.01-.01.04-.03.04-.05.01-.1.07-.18.08-.27,0-.1-.02-.15.02-.25.07-.18.22-.3.26-.49.02-.12,0-.16.08-.25.09-.11.11-.11.15-.25.07-.32.14-.48.35-.73.24-.28.27-.7.36-1.04.17-.68.39-1.34.54-2.02.11-.49.2-1.02.15-1.52-.02-.2-.05-.32-.02-.51.02-.1,0-.1-.03-.2-.02-.08,0-.13,0-.22,0-.07-.05-.12-.06-.19-.03-.12.02-.18.05-.28.02-.08,0-.14,0-.22.01-.08.06-.13.08-.21.02-.12,0-.22.02-.34.03-.09.03-.14.03-.24.03-.32.22-.59.32-.89.1-.29.21-.54.37-.83.15.61.27,1.26.52,1.84.07.18.19.33.27.5.05.09.07.2.11.29.07.13.16.25.24.37.09.16.17.36.31.49.04.04.08.08.14.08.06,0,.07-.07.13-.03.03.02.05.16.1.2.05.05.11.06.15.14.05.09.04.18.1.27.09.15.08.18.13.34.06.2.24.37.33.57.31.66.68,1.25,1.03,1.88.15.28.29.56.46.83.02.04.07.08.07.13.01.08-.06.15-.07.22-.01.11.07.28.12.38.04.09.12.08.17.15.05.07,0,.05-.03.14-.02.07-.01.12.02.18.03.08.09.14.12.22.02.06.01.14.05.19.05.06.12.04.14.12,0,.02-.03.08-.03.1,0,.09,0,.2,0,.29,0,.02.03.04.03.05,0,.08-.03.2-.08.29-.17.35-.54.64-.83.88-.27.22-.6.43-.95.49-.2.03-.47-.03-.66.09-.17.11-.22.43-.12.6.05.08.11.11.2.14.24.06.52.03.76.03.36,0,.72.02,1.07,0,.72-.05,1.41-.31,2.12-.43.34-.06.72-.06,1.02-.25.46-.3.09-.82-.05-1.21-.09-.26-.25-.51-.31-.76-.05-.18-.08-.34-.16-.5-.06-.12-.04-.23-.06-.37-.02-.11-.08-.13-.11-.2-.02-.06,0-.12,0-.19-.04-.2-.22-.29-.34-.43-.11-.14-.09-.34-.11-.5-.03-.21-.06-.41-.17-.59-.08-.12-.08-.18-.1-.34-.07-.53-.34-1.02-.54-1.51-.14-.35-.27-.71-.44-1.05-.13-.26-.31-.49-.47-.74-.06-.09-.09-.2-.15-.29-.05-.07-.12-.11-.17-.17-.06-.08-.1-.14-.17-.22-.05-.06-.08-.11-.11-.18-.02-.06,0-.09-.05-.14-.05-.05-.1-.02-.15-.05-.09-.06-.07-.15-.1-.23-.02-.06-.06-.11-.08-.17-.01-.04,0-.08-.02-.12-.01-.03-.06-.04-.07-.07-.04-.08,0-.18-.03-.27-.05-.17-.11-.23-.11-.41,0-.14,0-.1-.08-.2-.06-.07-.08-.08-.1-.17-.04-.17-.1-.37-.08-.54.02-.17-.01-.3-.03-.48-.06-.71-.05-1.4-.14-2.11-.06-.45-.15-.93-.13-1.39,0-.19.12-.26.23-.41.15-.21.26-.45.37-.69.19-.42.39-.85.42-1.31.04-.49-.03-1.02-.17-1.49-.04-.14-.19-.32-.22-.45,0-.02.03-.04.02-.06-.01-.09-.03-.11-.08-.19-.05-.08-.09-.14-.08-.24,0-.1.07-.18.02-.27-.04-.08-.17-.09-.2-.18-.03-.07.05-.15.04-.23,0-.06-.04-.15-.05-.22-.01-.1-.04-.13-.1-.21-.06-.08-.11-.12-.11-.23,0-.11.08-.2.07-.3-.01-.09-.1-.13-.12-.21-.02-.07.02-.14.01-.21-.01-.08-.08-.14-.08-.22,0-.06.05-.12.04-.18,0-.07-.06-.12-.06-.19,0-.07.07-.11.06-.19-.02-.12-.1-.18-.09-.32,0-.11.07-.2.07-.31,0-.25.02-.46.11-.71.06-.17.18-.3.25-.47.26.63.49,1.26.76,1.88.41.97.23,1.99.34,3.02.06.63.11,1.29.05,1.92-.04.47-.05.89-.25,1.31-.14.31-.28.62-.27.97,0,.21.03.43,0,.65,0,.08-.06.19-.04.27.04.19.11.03.21.08.18.09-.19.45-.11.6.09.16.28-.06.34-.13.07-.09.03-.06.11-.1.08-.04.18-.07.26-.11.09-.04.14-.11.22-.15.09-.05.2-.03.28-.1.04-.04.05-.09.1-.12.08-.05.15-.03.2-.11.15-.22.08-.68.08-.93,0-.51-.07-1-.04-1.51.04-.58.01-1.16.07-1.74.07-.68.08-1.36.06-2.04,0-.42,0-.86-.13-1.27-.04-.12-.1-.23-.11-.35-.02-.19-.01-.38-.04-.56-.1-.7-.29-1.38-.49-2.05-.1-.34-.2-.67-.31-1.01-.1-.3-.25-.61-.32-.91-.08-.36-.07-.74-.2-1.09-.11-.3-.35-.47-.54-.71-.18-.24-.29-.36-.35-.64-.14-.61-.12-1.26-.19-1.88-.07-.66-.14-1.33-.35-1.96-.14-.43-.27-.92-.49-1.32-.28-.5-.77-.96-1.35-1.05-.82-.13-1.66.03-2.35.48-.44.29-.78.69-.86,1.22-.04.28.08.56.37.64.01.07.03.15.03.23Z"/>
    </g>
    <g id="POLYLINE-4" data-name="POLYLINE">
      <path class="cls-3" d="m67.52,38.01c0,.53-.06,1.11-.26,1.61-.02.06-.24.42-.12.49.06.04.13-.06.19,0,.06.06-.05.09.06.12.03.01.32-.05.39-.07.13-.05.32-.23.44-.32.2-.16.24-.44.39-.64.18-.24.23-.39.28-.7.18-1.22.82-2.35.95-3.59.08-.81-.25-1.69-.79-2.29-.5-.56-1.19-.86-1.94-.88-.39,0-.79.02-1.12.24-.3.21-.52.53-.7.84-.83,1.4-1.26,3.01-2.01,4.45-.21.4-.61,1.06-.1,1.42.07.05.15.08.23.1-.08.27-.2.5-.32.75-.13.26-.21.54-.34.81-.3.62-.42,1.27-.65,1.92-.23.68-.38,1.45-.39,2.17,0,.18,0,.36.03.54.03.27-.05.49-.12.76-.08.32-.16.63-.19.95-.05.41-.23.77-.27,1.19-.08.92-.22,1.83-.25,2.76-.02.87,0,1.77-.18,2.63-.09.43-.31.82-.36,1.26-.04.29-.11.69-.04.97,0,.03,0,.08.03.11.06.07.15.02.21.07.05.05.02.16.06.23.05.08.1.09.18.11.22.05.08-.01.19.14.05.07.07.08.16.1.15.03.21-.03.26.1.05.13-.08.41.07.52.15.12.28-.06.32-.19.03-.1,0-.2.05-.29.03-.08.1-.13.13-.21.05-.11.04-.23.06-.34.04-.33.15-.64.2-.96.03-.14.01-.29,0-.44,0,0,.33-.01.37.02.08.07.02.24,0,.36-.04.28-.09.55-.16.82-.15.55-.38,1.07-.52,1.62-.13.54-.2,1.1-.37,1.64-.14.46-.37.89-.59,1.32-.22.43-.42.88-.69,1.28-.25.37-.57.69-.82,1.06-.59.89-.85,1.88-1.11,2.91-.32,1.23-.8,2.42-1.32,3.58-.06-.05-.13-.17-.22-.13-.04.02-.06.13-.07.16-.1.26-.17.53-.27.78-.21.52-.55,1.03-.7,1.58-.02.08-.03.15-.01.24.1.39.63.56.96.66.66.19,1.33.32,1.99.51.57.16,1.15.29,1.75.32.39.02.83.03,1.21-.07.09-.03.19-.06.26-.14.14-.16.16-.48.05-.66-.21-.34-.85-.33-1.18-.41-.48-.11-1.01-.41-1.26-.85-.13-.23-.2-.5-.24-.76-.04-.25.04-.48.03-.73-.01-.21-.11-.36-.26-.46,0,0-.06.03-.07.03.26-1,.86-1.92,1.4-2.79.31-.5.63-.99.91-1.51.24-.45.39-.94.61-1.39.26-.53.67-.86,1.13-1.22.6-.48.88-1.09,1.16-1.79.21-.51.49-.99.72-1.49.32-.68.64-1.37.96-2.05.39,1.01.85,2.08,1.5,2.96.36.49.68.96.91,1.52.15.37.24.77.44,1.11.09.15.14.26.15.44.02.45-.02.89.06,1.35.13.84.55,1.53,1,2.24.75,1.19,1.4,2.43,2.15,3.62-.1.02,0,.26.02.3.33.74.63,1.5.86,2.28.07.23.14.42.4.47.14.03.28,0,.41-.04.46-.14.9-.37,1.36-.53.75-.26,1.64-.39,2.31-.85.43-.3,1.07-.79,1.23-1.32.16-.51-.26-.79-.72-.69-.3.06-.58.21-.88.26-.33.05-.68.03-1.01-.01-.34-.04-.7-.09-1.02-.23-.28-.12-.5-.31-.75-.48-.15-.1-.3-.18-.48-.22-.08-.02-.04.03-.12-.02-.17-.11-.33-.42-.43-.59-.12-.2-.23-.41-.33-.62-.2-.46-.33-.94-.47-1.42-.15-.53-.28-1.07-.48-1.59-.18-.48-.42-.93-.57-1.42-.15-.51-.07-.93-.06-1.46.01-.92-.43-1.77-.71-2.62-.37-1.16-.73-2.32-1.14-3.47-.12-.34-.31-.72-.36-1.05,0-.06,0-.1-.03-.16-.1-.29-.32-.52-.44-.79-.03-.06-.09-.18-.08-.24.02-.08.04-.02.07-.07.09-.15.03-.24,0-.45-.03-.41,0-.83-.01-1.25-.02-.67-.04-1.35-.06-2.02-.02-.59-.05-1.17-.08-1.75.75.36,1.51.7,2.29,1.02.79.32,1.61.61,2.36,1.01.21.12.42.24.65.32.27.09.55.13.83.21.16.05.35.19.53.16.07-.01.13-.06.19-.09.11-.05.24-.07.34-.13.11-.06.17-.17.29-.22.07-.03.11,0,.17-.05.09-.09.09-.25.08-.36-.02-.18-.09-.33-.23-.45-.27-.22-.68-.45-1.04-.47-.47-.02-.92.1-1.38-.04-.25-.08-.49-.22-.72-.35-.41-.22-.83-.43-1.23-.66-.71-.39-1.39-.83-2.06-1.27-.24-.16-.47-.31-.7-.47-.16-.11-.31-.13-.29-.32.04-.39.23-.77.33-1.15.19-.76.14-1.68-.34-2.33-.27-.37-.64-.64-.88-1.03-.33-.53-.68-1.07-.98-1.62-.15-.28-.19-.59-.11-.9.04-.16.11-.31.18-.46.05-.1.2-.45.31-.48.08-.02.32.09.42.09Z"/>
    </g>
    <text class="cls-1" transform="translate(226.72 61.72)"><tspan x="0" y="0">RENTERS</tspan></text>
  </g>
</svg>