<?xml version="1.0" encoding="UTF-8"?>
<svg xmlns="http://www.w3.org/2000/svg" viewBox="0 0 669.37 732.38">
  <defs>
    <style>
      .cls-1 {
        letter-spacing: -.18em;
      }

      .cls-2 {
        fill: #ed2024;
      }

      .cls-3 {
        fill: #ec2426;
      }

      .cls-4 {
        stroke: #010101;
        stroke-dasharray: 0 0 11.83 11.83;
        stroke-width: 5.86px;
      }

      .cls-4, .cls-5, .cls-6, .cls-7 {
        stroke-miterlimit: 10;
      }

      .cls-4, .cls-7 {
        fill: none;
      }

      .cls-5 {
        stroke-width: .5px;
      }

      .cls-5, .cls-6 {
        fill: #fff;
        stroke: #fff;
      }

      .cls-8 {
        letter-spacing: -.11em;
      }

      .cls-9 {
        fill: #231f20;
        font-family: RocGrotesk-WideMedium, 'Roc Grotesk';
        font-size: 36px;
        font-weight: 500;
      }

      .cls-6 {
        stroke-width: .43px;
      }

      .cls-10 {
        fill: #010101;
        fill-rule: evenodd;
      }

      .cls-7 {
        stroke: #000;
        stroke-dasharray: 0 0 2 2;
        stroke-width: 3px;
      }

      .cls-11 {
        letter-spacing: -.07em;
      }
    </style>
  </defs>
  <g id="Axon_Lines" data-name="Axon Lines">
    <line class="cls-7" x1="3.74" y1="118.03" x2="2.42" y2="622.56"/>
    <line class="cls-7" x1="420.85" y1="115.88" x2="420.84" y2="622.56"/>
    <line class="cls-7" x1="212.76" y1="225.43" x2="210.33" y2="259.66"/>
    <line class="cls-7" x1="210.33" y1="478.77" x2="210.52" y2="513"/>
  </g>
  <g id="Policy_Incentives" data-name="Policy Incentives">
    <g>
      <path class="cls-3" d="m336.78,640.69c-20.45,22.84-68.03,2.58-90.08,24.4-12.12,12-35.02,14.37-52.24,15.71-29.9,2.33-60.08-8.11-85.54-22.86-30-17.38-42.14-47.17-5.47-65.36,22.47-11.14,47.71-14.41,71.47-21.33,22.26-6.48,40.8-12.83,62.99-9.8,26.48,3.61,69.76,13.62,91.09,34.97,10.37,10.38,18.42,32.39,7.78,44.27Z"/>
      <path class="cls-4" d="m336.78,640.69c-20.45,22.84-68.03,2.58-90.08,24.4-12.12,12-35.02,14.37-52.24,15.71-29.9,2.33-60.08-8.11-85.54-22.86-30-17.38-42.14-47.17-5.47-65.36,22.47-11.14,47.71-14.41,71.47-21.33,22.26-6.48,40.8-12.83,62.99-9.8,26.48,3.61,69.76,13.62,91.09,34.97,10.37,10.38,18.42,32.39,7.78,44.27Z"/>
    </g>
    <g>
      <path class="cls-10" d="m212.76,584.6c-.7-.36-1.54-.36-2.24,0l-68.93,35.8c-.81.42-1.31,1.25-1.31,2.16s.5,1.74,1.31,2.16l68.93,35.8c.7.36,1.54.36,2.24,0l68.93-35.8c.8-.42,1.31-1.25,1.31-2.16s-.5-1.74-1.31-2.16l-68.93-35.8Zm-1.11,4.89l63.65,33.06-63.65,33.06-63.66-33.06,63.66-33.06Z"/>
      <path class="cls-10" d="m281.68,548.8c-.7-.37-1.54-.37-2.24,0l-68.92,35.8c-.81.42-1.31,1.25-1.31,2.16s.5,1.74,1.31,2.16l68.92,35.8c.7.37,1.54.37,2.24,0l68.93-35.8c.8-.42,1.31-1.25,1.31-2.16s-.51-1.74-1.31-2.16l-68.93-35.8Zm-1.12,4.89l63.65,33.06-63.65,33.06-63.66-33.06,63.66-33.06Z"/>
      <path class="cls-10" d="m281.68,620.4c-.7-.37-1.54-.37-2.24,0l-68.92,35.8c-.81.42-1.31,1.25-1.31,2.16s.5,1.74,1.31,2.16l68.92,35.8c.7.37,1.54.37,2.24,0l68.93-35.8c.8-.42,1.31-1.25,1.31-2.16s-.51-1.74-1.31-2.16l-68.93-35.8Zm-1.12,4.89l63.65,33.06-63.65,33.06-63.66-33.06,63.66-33.06Z"/>
      <path class="cls-10" d="m212.76,656.2c-.7-.36-1.54-.36-2.24,0l-68.93,35.8c-.81.42-1.31,1.25-1.31,2.16s.5,1.74,1.31,2.16l68.93,35.8c.7.36,1.54.36,2.24,0l68.93-35.8c.8-.42,1.31-1.25,1.31-2.16s-.5-1.74-1.31-2.16l-68.93-35.8Zm-1.11,4.89l63.65,33.06-63.65,33.06-63.66-33.06,63.66-33.06Z"/>
      <path class="cls-10" d="m143.83,620.4c-.7-.37-1.54-.37-2.24,0l-68.92,35.8c-.81.42-1.31,1.25-1.31,2.16s.5,1.74,1.31,2.16l68.92,35.8c.7.37,1.54.37,2.24,0l68.93-35.8c.8-.42,1.31-1.25,1.31-2.16s-.5-1.74-1.31-2.16l-68.93-35.8Zm-1.11,4.89l63.65,33.06-63.65,33.06-63.66-33.06,63.66-33.06Z"/>
      <path class="cls-10" d="m74.9,584.6c-.7-.36-1.54-.36-2.24,0L3.74,620.4c-.81.42-1.31,1.25-1.31,2.16s.5,1.74,1.31,2.16l68.93,35.8c.7.36,1.53.36,2.24,0l68.93-35.8c.81-.42,1.31-1.25,1.31-2.16s-.5-1.74-1.31-2.16l-68.93-35.8Zm-1.12,4.89l63.65,33.06-63.65,33.06-63.65-33.06,63.65-33.06Z"/>
      <path class="cls-10" d="m350.6,584.6c-.7-.36-1.54-.36-2.24,0l-68.92,35.8c-.81.42-1.31,1.25-1.31,2.16s.5,1.74,1.31,2.16l68.92,35.8c.7.36,1.54.36,2.24,0l68.93-35.8c.8-.42,1.31-1.25,1.31-2.16s-.5-1.74-1.31-2.16l-68.93-35.8Zm-1.11,4.89l63.65,33.06-63.65,33.06-63.66-33.06,63.66-33.06Z"/>
      <path class="cls-10" d="m212.76,513c-.7-.36-1.54-.36-2.24,0l-68.93,35.8c-.81.42-1.31,1.25-1.31,2.16s.5,1.74,1.31,2.16l68.93,35.8c.7.36,1.54.36,2.24,0l68.93-35.8c.8-.42,1.31-1.25,1.31-2.16s-.5-1.74-1.31-2.16l-68.93-35.8Zm-1.11,4.89l63.65,33.06-63.65,33.06-63.66-33.06,63.66-33.06Z"/>
      <path class="cls-10" d="m143.83,548.8c-.7-.37-1.54-.37-2.24,0l-68.92,35.8c-.81.42-1.31,1.25-1.31,2.16s.5,1.74,1.31,2.16l68.92,35.8c.7.37,1.54.37,2.24,0l68.93-35.8c.8-.42,1.31-1.25,1.31-2.16s-.5-1.74-1.31-2.16l-68.93-35.8Zm-1.11,4.89l63.65,33.06-63.65,33.06-63.66-33.06,63.66-33.06Z"/>
    </g>
    <text class="cls-9" transform="translate(453.44 643.8)"><tspan x="0" y="0">POLI</tspan><tspan class="cls-11" x="96.52" y="0">C</tspan><tspan x="125.42" y="0">Y</tspan></text>
  </g>
  <g id="Spatial_Consequences" data-name="Spatial Consequences">
    <g>
      <path class="cls-10" d="m210.33,331.26c-.7-.36-1.54-.36-2.24,0l-68.93,35.8c-.81.42-1.31,1.25-1.31,2.16s.5,1.74,1.31,2.16l68.93,35.8c.7.36,1.54.36,2.24,0l68.93-35.8c.8-.42,1.31-1.25,1.31-2.16s-.5-1.74-1.31-2.16l-68.93-35.8Zm-1.11,4.89l63.65,33.06-63.65,33.06-63.66-33.06,63.66-33.06Z"/>
      <path class="cls-10" d="m279.26,295.47c-.7-.37-1.54-.37-2.24,0l-68.92,35.8c-.81.42-1.31,1.25-1.31,2.16s.5,1.74,1.31,2.16l68.92,35.8c.7.37,1.54.37,2.24,0l68.93-35.8c.8-.42,1.31-1.25,1.31-2.16s-.51-1.74-1.31-2.16l-68.93-35.8Zm-1.12,4.89l63.65,33.06-63.65,33.06-63.66-33.06,63.66-33.06Z"/>
      <path class="cls-10" d="m279.26,367.07c-.7-.37-1.54-.37-2.24,0l-68.92,35.8c-.81.42-1.31,1.25-1.31,2.16s.5,1.74,1.31,2.16l68.92,35.8c.7.37,1.54.37,2.24,0l68.93-35.8c.8-.42,1.31-1.25,1.31-2.16s-.51-1.74-1.31-2.16l-68.93-35.8Zm-1.12,4.89l63.65,33.06-63.65,33.06-63.66-33.06,63.66-33.06Z"/>
      <path class="cls-10" d="m210.33,402.86c-.7-.36-1.54-.36-2.24,0l-68.93,35.8c-.81.42-1.31,1.25-1.31,2.16s.5,1.74,1.31,2.16l68.93,35.8c.7.36,1.54.36,2.24,0l68.93-35.8c.8-.42,1.31-1.25,1.31-2.16s-.5-1.74-1.31-2.16l-68.93-35.8Zm-1.11,4.89l63.65,33.06-63.65,33.06-63.66-33.06,63.66-33.06Z"/>
      <path class="cls-10" d="m141.4,367.07c-.7-.37-1.54-.37-2.24,0l-68.92,35.8c-.81.42-1.31,1.25-1.31,2.16s.5,1.74,1.31,2.16l68.92,35.8c.7.37,1.54.37,2.24,0l68.93-35.8c.8-.42,1.31-1.25,1.31-2.16s-.5-1.74-1.31-2.16l-68.93-35.8Zm-1.11,4.89l63.65,33.06-63.65,33.06-63.66-33.06,63.66-33.06Z"/>
      <path class="cls-10" d="m72.48,331.26c-.7-.36-1.54-.36-2.24,0L1.31,367.06c-.81.42-1.31,1.25-1.31,2.16s.5,1.74,1.31,2.16l68.93,35.8c.7.36,1.53.36,2.24,0l68.93-35.8c.81-.42,1.31-1.25,1.31-2.16s-.5-1.74-1.31-2.16l-68.93-35.8Zm-1.12,4.89l63.65,33.06-63.65,33.06-63.65-33.06,63.65-33.06Z"/>
      <path class="cls-10" d="m348.18,331.26c-.7-.36-1.54-.36-2.24,0l-68.92,35.8c-.81.42-1.31,1.25-1.31,2.16s.5,1.74,1.31,2.16l68.92,35.8c.7.36,1.54.36,2.24,0l68.93-35.8c.8-.42,1.31-1.25,1.31-2.16s-.5-1.74-1.31-2.16l-68.93-35.8Zm-1.11,4.89l63.65,33.06-63.65,33.06-63.66-33.06,63.66-33.06Z"/>
      <path class="cls-10" d="m210.33,259.66c-.7-.36-1.54-.36-2.24,0l-68.93,35.8c-.81.42-1.31,1.25-1.31,2.16s.5,1.74,1.31,2.16l68.93,35.8c.7.36,1.54.36,2.24,0l68.93-35.8c.8-.42,1.31-1.25,1.31-2.16s-.5-1.74-1.31-2.16l-68.93-35.8Zm-1.11,4.89l63.65,33.06-63.65,33.06-63.66-33.06,63.66-33.06Z"/>
      <path class="cls-10" d="m141.4,295.47c-.7-.37-1.54-.37-2.24,0l-68.92,35.8c-.81.42-1.31,1.25-1.31,2.16s.5,1.74,1.31,2.16l68.92,35.8c.7.37,1.54.37,2.24,0l68.93-35.8c.8-.42,1.31-1.25,1.31-2.16s-.5-1.74-1.31-2.16l-68.93-35.8Zm-1.11,4.89l63.65,33.06-63.65,33.06-63.66-33.06,63.66-33.06Z"/>
    </g>
    <g>
      <g>
        <path class="cls-2" d="m115.56,323.74c.21,0,.41-.05.6-.16l14.1-8.14c.37-.21.6-.61.6-1.03v-7.43s-.01-.09-.02-.14c-.02-.13-.05-.26-.11-.38-.01-.02-.02-.05-.03-.08-.02-.02-.04-.05-.05-.07-.04-.06-.08-.12-.13-.18-.01-.01-.03-.02-.04-.03-.06-.06-.13-.11-.21-.16,0,0,0,0,0,0h0s-14.05-8.04-14.05-8.04c-.36-.21-.81-.21-1.18,0l-14.15,8.04s0,0,0,0c0,0,0,0,0,0-.05.03-.09.07-.13.1-.04.03-.08.05-.11.08-.05.05-.08.1-.12.16-.02.03-.05.06-.07.09-.04.07-.07.14-.09.22,0,.02-.02.04-.03.07-.02.07-.02.15-.03.23,0,.03-.01.05-.01.08h0v7.43c0,.43.23.82.6,1.03l14.09,8.14s0,0,0,0c.18.11.39.16.59.16h0Z"/>
        <polygon class="cls-2" points="128.47 313.72 116.75 320.48 116.75 315.8 128.47 309.04 128.47 313.72"/>
        <polygon class="cls-2" points="115.61 300.31 127.26 306.97 115.52 313.64 103.87 306.98 115.61 300.31"/>
        <polygon class="cls-2" points="102.65 309.04 114.37 315.8 114.37 320.48 102.65 313.72 102.65 309.04"/>
        <path class="cls-2" d="m88.2,369.54c.18.11.39.16.6.16s.41-.05.6-.16c.37-.21.6-.61.6-1.03v-5.8c0-.43-.23-.82-.6-1.03l-10.79-6.23c-.37-.21-.82-.21-1.19,0-.37.21-.6.61-.6,1.03v5.79c0,.43.23.82.6,1.03l10.79,6.23Z"/>
        <polygon class="cls-2" points="79.19 358.54 87.6 363.4 87.6 366.44 79.19 361.59 79.19 358.54"/>
        <path class="cls-2" d="m96.99,374.62l10.8,6.23c.18.11.39.16.6.16s.41-.05.6-.16c.37-.21.6-.61.6-1.03v-5.79c0-.43-.23-.82-.6-1.03l-10.8-6.23c-.37-.21-.82-.21-1.19,0-.37.21-.6.61-.6,1.03v5.79c0,.43.23.82.6,1.03h0Z"/>
        <polygon class="cls-2" points="98.78 369.85 107.2 374.71 107.2 377.76 98.78 372.9 98.78 369.85"/>
        <path class="cls-2" d="m96.99,362.1l10.8,6.23c.18.11.39.16.6.16s.41-.05.6-.16c.37-.21.6-.61.6-1.03v-10.62c0-.43-.23-.82-.6-1.03l-10.8-6.23c-.37-.21-.82-.21-1.19,0-.37.21-.6.61-.6,1.03v10.62c0,.42.23.82.6,1.03h0Z"/>
        <polygon class="cls-2" points="107.2 365.24 104.18 363.5 104.18 355.63 107.2 357.37 107.2 365.24"/>
        <polygon class="cls-2" points="98.78 352.51 101.8 354.25 101.8 362.12 98.78 360.38 98.78 352.51"/>
        <path class="cls-2" d="m77.41,350.79l10.8,6.23c.18.11.39.16.6.16s.41-.05.6-.16c.37-.21.6-.61.6-1.03v-10.62c0-.43-.23-.82-.6-1.03l-10.8-6.23c-.37-.21-.82-.21-1.19,0-.37.21-.6.61-.6,1.03v10.62c0,.43.23.82.6,1.03Z"/>
        <polygon class="cls-2" points="87.61 353.93 84.59 352.19 84.59 344.32 87.61 346.06 87.61 353.93"/>
        <polygon class="cls-2" points="79.19 341.2 82.21 342.94 82.21 350.81 79.19 349.07 79.19 341.2"/>
        <path class="cls-2" d="m180.48,371.04s0-.1-.02-.14c-.02-.07-.05-.13-.08-.19-.01-.03-.02-.06-.04-.09-.03-.06-.08-.1-.12-.15-.02-.03-.04-.06-.07-.09-.04-.04-.08-.07-.12-.1-.04-.03-.07-.07-.12-.09l-10.65-6.26v-1.62c0-.06-.01-.11-.02-.16,0-.05,0-.1-.02-.14-.02-.07-.05-.13-.08-.19-.01-.03-.02-.06-.04-.09-.03-.06-.08-.1-.12-.15-.02-.03-.04-.06-.07-.09-.04-.04-.08-.07-.12-.1-.04-.03-.07-.07-.12-.09l-8.17-4.8v-38.15l2.23-1.29c.37-.21.6-.61.6-1.03s-.23-.82-.6-1.03l-46.74-26.99c-.37-.21-.82-.21-1.19,0l-47.08,27.18c-.37.21-.6.61-.6,1.03s.23.82.6,1.03l2.23,1.29v61.8c0,.43.23.82.6,1.03l44.08,25.45c.18.11.39.16.6.16s.41-.05.6-.16l7.19-4.15c.12-.02.25-.06.36-.13l8.72-5.04c.11-.07.21-.15.29-.25l6.83-3.94,19.5,11.26c.18.11.39.16.6.16h0s0,0,0,0c.21,0,.41-.05.6-.16l19.99-11.54c.37-.21.6-.61.6-1.03v-20.77c0-.06-.01-.11-.02-.16h0Z"/>
        <polygon class="cls-2" points="178.12 380.27 172.91 383.28 172.91 381.66 178.12 378.66 178.12 380.27"/>
        <polygon class="cls-2" points="160.51 394.47 165.73 391.46 165.73 393.07 160.51 396.08 160.51 394.47"/>
        <path class="cls-2" d="m176.95,371.19l-17.63,10.17-17.57-10.15,7.62-4.4v4.57c0,.43.23.82.6,1.03l8.76,5.05c.18.11.39.16.6.16s.41-.05.6-.16l8.76-5.05c.37-.21.6-.61.6-1.03v-4.72l7.67,4.51Z"/>
        <polygon class="cls-2" points="159.41 358.59 165.71 362.29 159.98 365.59 159.32 365.98 152.96 362.31 159.41 358.59"/>
        <polygon class="cls-2" points="158.13 374.39 151.76 370.71 151.76 364.38 158.13 368.04 158.13 374.39"/>
        <polygon class="cls-2" points="160.51 368.04 166.89 364.36 166.89 370.71 160.51 374.39 160.51 368.04"/>
        <polygon class="cls-2" points="158.13 322.06 116.43 346.14 116.43 343.78 158.13 319.7 158.13 322.06"/>
        <polygon class="cls-2" points="115.41 290.39 159.76 316 115.07 341.81 70.71 316.2 115.41 290.39"/>
        <polygon class="cls-2" points="114.04 343.97 114.04 346.14 72.34 322.06 72.34 319.89 114.04 343.97"/>
        <path class="cls-2" d="m72.34,376.53v-51.72l41.7,24.08v51.73s0,3.08,0,3.08l-15.26-8.81v-12.62c0-.43-.23-.82-.6-1.03l-8.79-5.08c-.37-.21-.82-.21-1.19,0-.37.21-.6.61-.6,1.03v11.24l-15.26-8.81v-3.09Z"/>
        <polygon class="cls-2" points="96.4 382.96 96.4 393.3 94.38 392.13 94.38 381.8 96.4 382.96"/>
        <polygon class="cls-2" points="92 390.76 89.99 389.6 89.99 379.26 92 380.42 92 390.76"/>
        <path class="cls-2" d="m116.43,402.19v-23.18l9.56-5.52c.57-.33.77-1.06.44-1.63-.33-.57-1.06-.77-1.63-.44l-8.36,4.83v-27.37s41.7-24.08,41.7-24.08v31.76l-8.05,4.65s-.07.02-.1.04c-.37.21-.6.61-.6,1.03h0s0,.01,0,.02c0,0,0,.01,0,.02v1.74l-10.38,5.99c-.09.03-.18.06-.26.11-.37.21-.6.61-.6,1.03v19.97l-5.44,3.14v-13.34c0-.43-.23-.82-.6-1.03-.37-.21-.82-.21-1.19,0l-8.73,5.04c-.37.21-.6.61-.6,1.03v14.71s-5.17,2.99-5.17,2.99v-1.52s0,0,0,0Z"/>
        <polygon class="cls-2" points="123.98 399.34 123.98 386.69 130.32 383.03 130.32 395.68 123.98 399.34"/>
        <polygon class="cls-2" points="146.14 394.5 146.14 389.42 150.95 392.2 150.95 397.27 146.14 394.5"/>
        <path class="cls-2" d="m158.13,401.45l-4.8-2.77v-7.17c0-.43-.23-.82-.6-1.03l-7.19-4.15c-.37-.21-.82-.21-1.19,0-.37.21-.6.61-.6,1.03v5.8l-3.24-1.87v-17.98s17.61,10.13,17.61,10.13v18.02Z"/>
        <path class="cls-2" d="m160.51,401.45v-2.62l7-4.04c.37-.21.6-.61.6-1.03v-4.37c0-.43-.23-.82-.6-1.03-.37-.21-.82-.21-1.19,0l-5.81,3.35v-8.28s15.35-8.86,15.35-8.86l2.26-1.31v2.64l-7,4.04c-.37.21-.6.61-.6,1.03v4.37c0,.43.23.82.6,1.03.18.11.39.16.6.16s.41-.05.6-.16l5.81-3.35v8.27l-17.61,10.17Z"/>
        <path class="cls-2" d="m139.81,356.4c.18.11.39.16.6.16s.41-.05.6-.16l11.08-6.39c.37-.21.6-.61.6-1.03v-13.45c0-.43-.23-.82-.6-1.03-.37-.21-.82-.21-1.19,0l-11.08,6.4c-.37.21-.6.61-.6,1.03v13.44c0,.43.23.82.6,1.03h0Z"/>
        <polygon class="cls-2" points="141.6 349.33 144.75 347.51 144.75 351.48 141.6 353.3 141.6 349.33"/>
        <polygon class="cls-2" points="147.13 350.11 147.13 346.14 150.29 344.31 150.29 348.28 147.13 350.11"/>
        <polygon class="cls-2" points="150.29 341.56 147.13 343.38 147.13 339.41 150.29 337.59 150.29 341.56"/>
        <polygon class="cls-2" points="144.75 340.79 144.75 344.76 141.6 346.58 141.6 342.61 144.75 340.79"/>
        <path class="cls-2" d="m135.35,358.98v-13.44c0-.43-.23-.82-.6-1.03-.37-.21-.82-.21-1.19,0l-11.08,6.4c-.37.21-.6.61-.6,1.03v13.44c0,.43.23.82.6,1.03.18.11.39.16.6.16s.41-.05.6-.16l11.08-6.4c.37-.21.6-.6.6-1.03h0Z"/>
        <polygon class="cls-2" points="132.96 351.57 129.81 353.39 129.81 349.42 132.96 347.6 132.96 351.57"/>
        <polygon class="cls-2" points="127.43 350.79 127.43 354.76 124.27 356.58 124.27 352.61 127.43 350.79"/>
        <polygon class="cls-2" points="124.27 359.34 127.42 357.51 127.42 361.48 124.27 363.31 124.27 359.34"/>
        <polygon class="cls-2" points="129.81 360.11 129.81 356.14 132.96 354.32 132.96 358.29 129.81 360.11"/>
      </g>
      <g>
        <path class="cls-5" d="m115.56,323.74c.21,0,.41-.05.6-.16l14.1-8.14c.37-.21.6-.61.6-1.03v-7.43s-.01-.09-.02-.14c-.02-.13-.05-.26-.11-.38-.01-.02-.02-.05-.03-.08-.02-.02-.04-.05-.05-.07-.04-.06-.08-.12-.13-.18-.01-.01-.03-.02-.04-.03-.06-.06-.13-.11-.21-.16,0,0,0,0,0,0h0s-14.05-8.04-14.05-8.04c-.36-.21-.81-.21-1.18,0l-14.15,8.04s0,0,0,0c0,0,0,0,0,0-.05.03-.09.07-.13.1-.04.03-.08.05-.11.08-.05.05-.08.1-.12.16-.02.03-.05.06-.07.09-.04.07-.07.14-.09.22,0,.02-.02.04-.03.07-.02.07-.02.15-.03.23,0,.03-.01.05-.01.08h0v7.43c0,.43.23.82.6,1.03l14.09,8.14s0,0,0,0c.18.11.39.16.59.16h0Zm12.91-10.02l-11.72,6.77v-4.68l11.72-6.77v4.68Zm-12.86-13.41l11.65,6.66-11.74,6.67-11.65-6.66,11.74-6.67Zm-12.96,8.73l11.72,6.76v4.68l-11.72-6.76v-4.68Z"/>
        <path class="cls-5" d="m88.2,369.54c.18.11.39.16.6.16s.41-.05.6-.16c.37-.21.6-.61.6-1.03v-5.8c0-.43-.23-.82-.6-1.03l-10.79-6.23c-.37-.21-.82-.21-1.19,0-.37.21-.6.61-.6,1.03v5.79c0,.43.23.82.6,1.03l10.79,6.23Zm-9.01-11l8.41,4.86v3.04l-8.41-4.86v-3.04Z"/>
        <path class="cls-5" d="m96.99,374.62l10.8,6.23c.18.11.39.16.6.16s.41-.05.6-.16c.37-.21.6-.61.6-1.03v-5.79c0-.43-.23-.82-.6-1.03l-10.8-6.23c-.37-.21-.82-.21-1.19,0-.37.21-.6.61-.6,1.03v5.79c0,.43.23.82.6,1.03h0Zm1.79-4.76l8.41,4.86v3.04l-8.41-4.86v-3.04Z"/>
        <path class="cls-5" d="m96.99,362.1l10.8,6.23c.18.11.39.16.6.16s.41-.05.6-.16c.37-.21.6-.61.6-1.03v-10.62c0-.43-.23-.82-.6-1.03l-10.8-6.23c-.37-.21-.82-.21-1.19,0-.37.21-.6.61-.6,1.03v10.62c0,.42.23.82.6,1.03h0Zm10.2,3.14l-3.01-1.74v-7.87l3.01,1.74v7.87Zm-8.41-12.73l3.01,1.74v7.87l-3.01-1.74v-7.87Z"/>
        <path class="cls-5" d="m77.41,350.79l10.8,6.23c.18.11.39.16.6.16s.41-.05.6-.16c.37-.21.6-.61.6-1.03v-10.62c0-.43-.23-.82-.6-1.03l-10.8-6.23c-.37-.21-.82-.21-1.19,0-.37.21-.6.61-.6,1.03v10.62c0,.43.23.82.6,1.03Zm10.2,3.14l-3.01-1.74v-7.87l3.01,1.74v7.87Zm-8.41-12.73l3.01,1.74v7.87l-3.01-1.74v-7.87Z"/>
        <path class="cls-5" d="m180.48,371.04s0-.1-.02-.14c-.02-.07-.05-.13-.08-.19-.01-.03-.02-.06-.04-.09-.03-.06-.08-.1-.12-.15-.02-.03-.04-.06-.07-.09-.04-.04-.08-.07-.12-.1-.04-.03-.07-.07-.12-.09l-10.65-6.26v-1.62c0-.06-.01-.11-.02-.16,0-.05,0-.1-.02-.14-.02-.07-.05-.13-.08-.19-.01-.03-.02-.06-.04-.09-.03-.06-.08-.1-.12-.15-.02-.03-.04-.06-.07-.09-.04-.04-.08-.07-.12-.1-.04-.03-.07-.07-.12-.09l-8.17-4.8v-38.15l2.23-1.29c.37-.21.6-.61.6-1.03s-.23-.82-.6-1.03l-46.74-26.99c-.37-.21-.82-.21-1.19,0l-47.08,27.18c-.37.21-.6.61-.6,1.03s.23.82.6,1.03l2.23,1.29v61.8c0,.43.23.82.6,1.03l44.08,25.45c.18.11.39.16.6.16s.41-.05.6-.16l7.19-4.15c.12-.02.25-.06.36-.13l8.72-5.04c.11-.07.21-.15.29-.25l6.83-3.94,19.5,11.26c.18.11.39.16.6.16h0s0,0,0,0c.21,0,.41-.05.6-.16l19.99-11.54c.37-.21.6-.61.6-1.03v-20.77c0-.06-.01-.11-.02-.16h0Zm-2.36,9.23l-5.21,3.01v-1.61l5.21-3.01v1.61Zm-17.61,14.2l5.21-3.01v1.61l-5.21,3.01v-1.61Zm16.43-23.27l-17.63,10.17-17.57-10.15,7.62-4.4v4.57c0,.43.23.82.6,1.03l8.76,5.05c.18.11.39.16.6.16s.41-.05.6-.16l8.76-5.05c.37-.21.6-.61.6-1.03v-4.72l7.67,4.51Zm-17.53-12.61l6.3,3.7-5.73,3.31-.66.38-6.36-3.67,6.45-3.72Zm-1.28,15.8l-6.37-3.68v-6.33s6.37,3.66,6.37,3.66v6.35Zm2.38-6.35l6.38-3.68v6.35l-6.38,3.68v-6.35Zm-2.38-45.98l-41.7,24.08v-2.37l41.7-24.08v2.36Zm-42.72-31.67l44.36,25.61-44.69,25.8-44.36-25.61,44.7-25.8Zm-1.36,53.57v2.17l-41.7-24.08v-2.17l41.7,24.08Zm-41.7,32.57v-51.72l41.7,24.08v51.73s0,3.08,0,3.08l-15.26-8.81v-12.62c0-.43-.23-.82-.6-1.03l-8.79-5.08c-.37-.21-.82-.21-1.19,0-.37.21-.6.61-.6,1.03v11.24l-15.26-8.81v-3.09Zm24.05,6.43v10.34l-2.01-1.16v-10.34l2.01,1.16Zm-4.4,7.8l-2.01-1.16v-10.34l2.01,1.16v10.33Zm24.43,11.43v-23.18l9.56-5.52c.57-.33.77-1.06.44-1.63-.33-.57-1.06-.77-1.63-.44l-8.36,4.83v-27.37s41.7-24.08,41.7-24.08v31.76l-8.05,4.65s-.07.02-.1.04c-.37.21-.6.61-.6,1.03h0s0,.01,0,.02c0,0,0,.01,0,.02v1.74l-10.38,5.99c-.09.03-.18.06-.26.11-.37.21-.6.61-.6,1.03v19.97l-5.44,3.14v-13.34c0-.43-.23-.82-.6-1.03-.37-.21-.82-.21-1.19,0l-8.73,5.04c-.37.21-.6.61-.6,1.03v14.71s-5.17,2.99-5.17,2.99v-1.52s0,0,0,0Zm7.55-2.85v-12.65s6.34-3.66,6.34-3.66v12.65l-6.34,3.66Zm22.16-4.84v-5.07l4.81,2.78v5.07s-4.81-2.78-4.81-2.78Zm11.99,6.96l-4.8-2.77v-7.17c0-.43-.23-.82-.6-1.03l-7.19-4.15c-.37-.21-.82-.21-1.19,0-.37.21-.6.61-.6,1.03v5.8l-3.24-1.87v-17.98s17.61,10.13,17.61,10.13v18.02Zm2.38,0v-2.62l7-4.04c.37-.21.6-.61.6-1.03v-4.37c0-.43-.23-.82-.6-1.03-.37-.21-.82-.21-1.19,0l-5.81,3.35v-8.28s15.35-8.86,15.35-8.86l2.26-1.31v2.64l-7,4.04c-.37.21-.6.61-.6,1.03v4.37c0,.43.23.82.6,1.03.18.11.39.16.6.16s.41-.05.6-.16l5.81-3.35v8.27l-17.61,10.17Z"/>
        <path class="cls-5" d="m139.81,356.4c.18.11.39.16.6.16s.41-.05.6-.16l11.08-6.39c.37-.21.6-.61.6-1.03v-13.45c0-.43-.23-.82-.6-1.03-.37-.21-.82-.21-1.19,0l-11.08,6.4c-.37.21-.6.61-.6,1.03v13.44c0,.43.23.82.6,1.03h0Zm1.79-7.07l3.15-1.82v3.97l-3.15,1.82v-3.97Zm5.54.77v-3.97l3.15-1.82v3.97l-3.15,1.82Zm3.16-8.54l-3.15,1.82v-3.97l3.15-1.82v3.97Zm-5.54-.77v3.97l-3.15,1.82v-3.97l3.15-1.82Z"/>
        <path class="cls-5" d="m135.35,358.98v-13.44c0-.43-.23-.82-.6-1.03-.37-.21-.82-.21-1.19,0l-11.08,6.4c-.37.21-.6.61-.6,1.03v13.44c0,.43.23.82.6,1.03.18.11.39.16.6.16s.41-.05.6-.16l11.08-6.4c.37-.21.6-.6.6-1.03h0Zm-2.38-7.41l-3.15,1.82v-3.97l3.15-1.82v3.97Zm-5.54-.77v3.97l-3.15,1.82v-3.97l3.15-1.82Zm-3.16,8.54l3.15-1.82v3.97l-3.15,1.82v-3.97Zm5.54.77v-3.97l3.15-1.82v3.97l-3.15,1.82Z"/>
      </g>
    </g>
    <g>
      <g>
        <path class="cls-2" d="m309.35,318.91s0-.03,0-.04c-.04-.15-.11-.28-.19-.41-.02-.03-.04-.06-.07-.09-.09-.12-.2-.23-.34-.31,0,0,0,0-.01-.01h0s0,0,0,0h0l-41.4-24.79v-2.03l.42-.24c.42-.24.68-.69.68-1.17s-.26-.93-.68-1.17l-14.79-8.54c-.42-.24-.93-.24-1.35,0l-14.9,8.6c-.42.24-.68.69-.68,1.17s.26.93.68,1.17l.42.24v4.86l-15.29,8.66s0,0,0,0c0,0,0,0,0,0-.14.08-.25.19-.35.31-.03.03-.05.06-.07.09-.08.12-.15.25-.2.39,0,0,0,.01,0,.02-.03.11-.05.23-.05.36v3.47l-9.67,5.19s0,0-.01.01c0,0-.02,0-.03,0-.13.08-.24.18-.34.29-.03.03-.04.06-.07.09-.08.11-.14.23-.19.36,0,.02-.02.04-.02.06-.03.12-.06.25-.06.38v11.07c0,.48.26.93.68,1.17l9.71,5.6v2.09l-9.67,5.19s0,0-.01.01c0,0-.02,0-.03,0-.13.08-.24.18-.34.29-.03.03-.04.06-.07.09-.08.11-.14.23-.19.36,0,.02-.02.04-.02.06-.03.12-.06.25-.06.38v11.07c0,.48.26.93.68,1.17l9.71,5.61v27.23c0,.48.26.93.68,1.17l23.1,13.34s.03.01.05.02l8.77,5.07c.14.08.28.12.43.15l13.85,7.99c.21.12.44.18.68.18s.47-.06.68-.18l22.35-12.9,7.53,4.35c.21.12.44.18.68.18s.47-.06.68-.18l8.01-4.63c.42-.24.68-.69.68-1.17l.11-81.39c0-.1-.02-.2-.04-.3h0Z"/>
        <polygon class="cls-2" points="239.81 303.53 239.81 292.91 250.86 299.29 250.86 309.91 239.81 303.53"/>
        <polygon class="cls-2" points="253.57 299.3 264.62 292.91 264.62 303.53 253.57 309.91 253.57 299.3"/>
        <polygon class="cls-2" points="252.27 282.82 264.36 289.8 252.16 296.84 240.07 289.86 252.27 282.82"/>
        <path class="cls-2" d="m237.78,305.48l13.75,7.94c.21.12.44.18.68.18s.47-.06.68-.18l13.76-7.94c.42-.24.68-.69.68-1.17v-7.92l38.02,22.77-5.53,3.11-7.34-4.24s0,0,0,0c-.42-.24-.93-.24-1.35,0h0l-22.43,12.95-22.43-12.95c-.14-.08-.3-.13-.45-.15l-20.6-11.9,11.9-6.74v5.07c0,.49.26.93.68,1.17h0Z"/>
        <path class="cls-2" d="m291.39,379.32c-.12.04-.22.09-.31.15l-15.3,7.53v-8.02l16.61-7.32s0,0,0,0l6.06-2.67v6.85l-7.07,3.48Z"/>
        <path class="cls-2" d="m270.04,374.01v-12.12l3.7,2.14c.07.04.14.06.22.09.03.01.07.03.1.04.12.03.24.05.36.05.19,0,.37-.05.54-.13.02,0,.03,0,.05-.01l15.43-7.59v13.08l-15.94,7.02-4.46-2.58Z"/>
        <polygon class="cls-2" points="267.34 360.34 267.34 372.45 246.94 360.68 246.94 348.56 267.34 360.34"/>
        <polygon class="cls-2" points="223.84 308.31 244.23 320.09 244.23 332.8 223.84 321.03 223.84 308.31"/>
        <polygon class="cls-2" points="246.94 321.54 267.34 333.32 267.34 346.14 246.94 334.37 246.94 321.54"/>
        <polygon class="cls-2" points="270.04 333.32 290.44 321.54 290.44 343.26 274.51 350.28 270.04 347.71 270.04 333.32"/>
        <polygon class="cls-2" points="293.15 321.54 298.46 324.61 298.48 339.72 293.18 342.06 293.15 321.54"/>
        <path class="cls-2" d="m291.34,353.03c-.07.03-.13.06-.19.09l-15.38,7.57v-8.02l16.58-7.3s0,0,0,0l6.1-2.68v6.85l-7.11,3.5Z"/>
        <polygon class="cls-2" points="293.21 368.35 293.2 355.14 298.49 352.53 298.51 366.02 293.21 368.35"/>
        <polygon class="cls-2" points="221.13 319.47 214.88 315.86 221.13 312.51 221.13 319.47"/>
        <polygon class="cls-2" points="213.45 318.16 273.07 352.57 273.07 360.52 213.45 326.1 213.45 318.16"/>
        <polygon class="cls-2" points="244.23 347 244.23 359.12 223.84 347.34 223.84 335.22 244.23 347"/>
        <polygon class="cls-2" points="221.13 345.78 214.88 342.17 221.13 338.82 221.13 345.78"/>
        <polygon class="cls-2" points="213.45 344.47 273.07 378.88 273.07 386.83 213.45 352.41 213.45 344.47"/>
        <polygon class="cls-2" points="238.11 394.65 238.11 382.2 244.23 385.74 244.23 398.18 238.11 394.65"/>
        <polygon class="cls-2" points="246.94 399.65 246.94 387.3 253.06 390.83 253.06 403.18 246.94 399.65"/>
        <path class="cls-2" d="m255.09,388.88l-8.15-4.7v-9.31l20.4,11.78v24.78l-11.58-6.68v-14.69c0-.48-.26-.93-.68-1.17h0Z"/>
        <path class="cls-2" d="m223.83,361.53l20.4,11.78v9.31l-6.8-3.93c-.42-.24-.93-.24-1.35,0-.42.24-.68.69-.68,1.17v13.24l-11.57-6.68v-24.89Z"/>
        <path class="cls-2" d="m270.04,411.42v-23.21l3.7,2.14c.07.04.14.06.22.09.03.01.07.03.1.04.12.03.24.05.36.05.19,0,.37-.05.54-.13.02,0,.03,0,.05-.01l15.43-7.59v16.85l-20.4,11.78Z"/>
        <polygon class="cls-2" points="293.23 381.43 298.53 378.82 298.56 402.87 293.25 399.81 293.23 381.43"/>
        <polygon class="cls-2" points="306.58 399.81 301.27 402.88 301.16 324.62 306.68 321.51 306.58 399.81"/>
      </g>
      <path class="cls-6" d="m309.35,318.91s0-.03,0-.04c-.04-.15-.11-.28-.19-.41-.02-.03-.04-.06-.07-.09-.09-.12-.2-.23-.34-.31,0,0,0,0-.01-.01h0s0,0,0,0h0l-41.4-24.79v-2.03l.42-.24c.42-.24.68-.69.68-1.17s-.26-.93-.68-1.17l-14.79-8.54c-.42-.24-.93-.24-1.35,0l-14.9,8.6c-.42.24-.68.69-.68,1.17s.26.93.68,1.17l.42.24v4.86l-15.29,8.66s0,0,0,0c0,0,0,0,0,0-.14.08-.25.19-.35.31-.03.03-.05.06-.07.09-.08.12-.15.25-.2.39,0,0,0,.01,0,.02-.03.11-.05.23-.05.36v3.47l-9.67,5.19s0,0-.01.01c0,0-.02,0-.03,0-.13.08-.24.18-.34.29-.03.03-.04.06-.07.09-.08.11-.14.23-.19.36,0,.02-.02.04-.02.06-.03.12-.06.25-.06.38v11.07c0,.48.26.93.68,1.17l9.71,5.6v2.09l-9.67,5.19s0,0-.01.01c0,0-.02,0-.03,0-.13.08-.24.18-.34.29-.03.03-.04.06-.07.09-.08.11-.14.23-.19.36,0,.02-.02.04-.02.06-.03.12-.06.25-.06.38v11.07c0,.48.26.93.68,1.17l9.71,5.61v27.23c0,.48.26.93.68,1.17l23.1,13.34s.03.01.05.02l8.77,5.07c.14.08.28.12.43.15l13.85,7.99c.21.12.44.18.68.18s.47-.06.68-.18l22.35-12.9,7.53,4.35c.21.12.44.18.68.18s.47-.06.68-.18l8.01-4.63c.42-.24.68-.69.68-1.17l.11-81.39c0-.1-.02-.2-.04-.3h0Zm-69.54-15.37v-10.62l11.05,6.38v10.62l-11.05-6.38Zm13.75-4.24l11.05-6.38v10.62l-11.05,6.38v-10.62Zm-1.3-16.48l12.09,6.98-12.2,7.04-12.09-6.98,12.2-7.04Zm-14.48,22.66l13.75,7.94c.21.12.44.18.68.18s.47-.06.68-.18l13.76-7.94c.42-.24.68-.69.68-1.17v-7.92l38.02,22.77-5.53,3.11-7.34-4.24s0,0,0,0c-.42-.24-.93-.24-1.35,0h0l-22.43,12.95-22.43-12.95c-.14-.08-.3-.13-.45-.15l-20.6-11.9,11.9-6.74v5.07c0,.49.26.93.68,1.17h0Zm53.6,73.84c-.12.04-.22.09-.31.15l-15.3,7.53v-8.02l16.61-7.32s0,0,0,0l6.06-2.67v6.85l-7.07,3.48Zm-21.35-5.3v-12.12l3.7,2.14c.07.04.14.06.22.09.03.01.07.03.1.04.12.03.24.05.36.05.19,0,.37-.05.54-.13.02,0,.03,0,.05-.01l15.43-7.59v13.08l-15.94,7.02-4.46-2.58Zm-2.7-13.68v12.12l-20.4-11.78v-12.12l20.4,11.78Zm-43.5-52.03l20.4,11.78v12.72l-20.4-11.78v-12.72Zm23.1,13.23l20.4,11.78v12.82l-20.4-11.78v-12.83Zm23.11,11.78l20.4-11.78v21.72l-15.94,7.02-4.46-2.58v-14.39Zm23.11-11.78l5.31,3.07.02,15.12-5.3,2.34-.03-20.52Zm-1.81,31.49c-.07.03-.13.06-.19.09l-15.38,7.57v-8.02l16.58-7.3s0,0,0,0l6.1-2.68v6.85l-7.11,3.5Zm1.87,15.32l-.02-13.21,5.3-2.61.02,13.49-5.3,2.33Zm-72.08-48.88l-6.25-3.61,6.25-3.35v6.96Zm-7.68-1.31l59.62,34.42v7.95l-59.62-34.42v-7.95Zm30.78,28.84v12.12l-20.4-11.78v-12.12l20.4,11.78Zm-23.1-1.22l-6.25-3.61,6.25-3.35v6.96Zm-7.68-1.31l59.62,34.42v7.95l-59.62-34.42v-7.95Zm24.66,50.18v-12.45l6.12,3.53v12.45l-6.12-3.54Zm8.83,5v-12.35l6.12,3.53v12.35l-6.12-3.53Zm8.15-10.77l-8.15-4.7v-9.31l20.4,11.78v24.78l-11.58-6.68v-14.69c0-.48-.26-.93-.68-1.17h0Zm-31.25-27.35l20.4,11.78v9.31l-6.8-3.93c-.42-.24-.93-.24-1.35,0-.42.24-.68.69-.68,1.17v13.24l-11.57-6.68v-24.89Zm46.21,49.89v-23.21l3.7,2.14c.07.04.14.06.22.09.03.01.07.03.1.04.12.03.24.05.36.05.19,0,.37-.05.54-.13.02,0,.03,0,.05-.01l15.43-7.59v16.85l-20.4,11.78Zm23.19-30l5.3-2.61.03,24.05-5.31-3.07-.02-18.38Zm13.35,18.38l-5.31,3.07-.1-78.26,5.52-3.1-.1,78.3Z"/>
    </g>
    <text class="cls-9" transform="translate(453.44 378.73)"><tspan x="0" y="0">S</tspan><tspan class="cls-8" x="30.74" y="0">P</tspan><tspan class="cls-1" x="55.76" y="0">A</tspan><tspan x="84.46" y="0">TIAL</tspan></text>
  </g>
  <g id="Impact_on_Renters" data-name="Impact on Renters">
    <g>
      <path class="cls-10" d="m212.76,77.92c-.7-.36-1.54-.36-2.24,0l-68.93,35.8c-.81.42-1.31,1.25-1.31,2.16s.5,1.74,1.31,2.16l68.93,35.8c.7.36,1.54.36,2.24,0l68.93-35.8c.8-.42,1.31-1.25,1.31-2.16s-.5-1.74-1.31-2.16l-68.93-35.8Zm-1.11,4.89l63.65,33.06-63.65,33.06-63.66-33.06,63.66-33.06Z"/>
      <path class="cls-10" d="m281.69,42.13c-.7-.37-1.54-.37-2.24,0l-68.92,35.8c-.81.42-1.31,1.25-1.31,2.16s.5,1.74,1.31,2.16l68.92,35.8c.7.37,1.54.37,2.24,0l68.93-35.8c.8-.42,1.31-1.25,1.31-2.16s-.51-1.74-1.31-2.16l-68.93-35.8Zm-1.12,4.89l63.65,33.06-63.65,33.06-63.66-33.06,63.66-33.06Z"/>
      <path class="cls-10" d="m281.69,113.73c-.7-.37-1.54-.37-2.24,0l-68.92,35.8c-.81.42-1.31,1.25-1.31,2.16s.5,1.74,1.31,2.16l68.92,35.8c.7.37,1.54.37,2.24,0l68.93-35.8c.8-.42,1.31-1.25,1.31-2.16s-.51-1.74-1.31-2.16l-68.93-35.8Zm-1.12,4.89l63.65,33.06-63.65,33.06-63.66-33.06,63.66-33.06Z"/>
      <path class="cls-10" d="m212.76,149.52c-.7-.36-1.54-.36-2.24,0l-68.93,35.8c-.81.42-1.31,1.25-1.31,2.16s.5,1.74,1.31,2.16l68.93,35.8c.7.36,1.54.36,2.24,0l68.93-35.8c.8-.42,1.31-1.25,1.31-2.16s-.5-1.74-1.31-2.16l-68.93-35.8Zm-1.11,4.89l63.65,33.06-63.65,33.06-63.66-33.06,63.66-33.06Z"/>
      <path class="cls-10" d="m143.84,113.73c-.7-.37-1.54-.37-2.24,0l-68.92,35.8c-.81.42-1.31,1.25-1.31,2.16s.5,1.74,1.31,2.16l68.92,35.8c.7.37,1.54.37,2.24,0l68.93-35.8c.8-.42,1.31-1.25,1.31-2.16s-.5-1.74-1.31-2.16l-68.93-35.8Zm-1.11,4.89l63.65,33.06-63.65,33.06-63.66-33.06,63.66-33.06Z"/>
      <path class="cls-10" d="m74.91,77.92c-.7-.36-1.54-.36-2.24,0L3.74,113.72c-.81.42-1.31,1.25-1.31,2.16s.5,1.74,1.31,2.16l68.93,35.8c.7.36,1.53.36,2.24,0l68.93-35.8c.81-.42,1.31-1.25,1.31-2.16s-.5-1.74-1.31-2.16l-68.93-35.8Zm-1.12,4.89l63.65,33.06-63.65,33.06L10.14,115.88l63.65-33.06Z"/>
      <path class="cls-10" d="m350.61,77.92c-.7-.36-1.54-.36-2.24,0l-68.92,35.8c-.81.42-1.31,1.25-1.31,2.16s.5,1.74,1.31,2.16l68.92,35.8c.7.36,1.54.36,2.24,0l68.93-35.8c.8-.42,1.31-1.25,1.31-2.16s-.5-1.74-1.31-2.16l-68.93-35.8Zm-1.11,4.89l63.65,33.06-63.65,33.06-63.66-33.06,63.66-33.06Z"/>
      <path class="cls-10" d="m212.76,6.32c-.7-.36-1.54-.36-2.24,0l-68.93,35.8c-.81.42-1.31,1.25-1.31,2.16s.5,1.74,1.31,2.16l68.93,35.8c.7.36,1.54.36,2.24,0l68.93-35.8c.8-.42,1.31-1.25,1.31-2.16s-.5-1.74-1.31-2.16L212.76,6.32Zm-1.11,4.89l63.65,33.06-63.65,33.06-63.66-33.06,63.66-33.06Z"/>
      <path class="cls-10" d="m143.84,42.13c-.7-.37-1.54-.37-2.24,0l-68.92,35.8c-.81.42-1.31,1.25-1.31,2.16s.5,1.74,1.31,2.16l68.92,35.8c.7.37,1.54.37,2.24,0l68.93-35.8c.8-.42,1.31-1.25,1.31-2.16s-.5-1.74-1.31-2.16l-68.93-35.8Zm-1.11,4.89l63.65,33.06-63.65,33.06-63.66-33.06,63.66-33.06Z"/>
    </g>
    <g id="POLYLINE">
      <path class="cls-2" d="m192.57,51.59c-.4.53-.73,1.09-1.07,1.66-.19.32-.55.73-.59,1.11-.02.17.09.31.22.43.35.32.85.53,1.3.69.37.13.68.15,1.08.12.33-.03.69,0,.98.17.27.17.44.44.64.67.19.2.42.35.68.46,1.03.43,2.22.31,3.32.29.57-.01,1.49.09,1.66-.58.1-.41-.01-1.03-.47-1.22-.41-.18-.89-.18-1.32-.31-.26-.08-.49-.2-.69-.37-.35-.3-.58-.7-.76-1.1-.12-.25-.21-.51-.27-.77-.03-.11-.05-.22-.07-.34,0-.04-.04-.11-.03-.16.01-.06,0-.03.04-.07.08-.08.17-.11.2-.22.04-.16-.08-.32-.07-.48,0-.21.19-.36.27-.54.1-.23-.01-.46.02-.69.02-.17.16-.28.29-.39.32-.27.53-.61.72-.96.12-.22.23-.46.38-.67.11-.16.26-.29.39-.44.35-.44.59-.94.99-1.36.42-.44.88-.84,1.22-1.34.35-.51.61-1.07.98-1.56.24-.31.51-.52.87-.7.13-.07.24-.13.29-.26.06-.16.06-.25.24-.32.29-.11.57-.13.77-.37.09-.11.1-.27.22-.36.14-.1.35-.11.45-.25.08-.12.05-.3.17-.41.11-.09.29-.06.41-.13.17-.09.22-.35.27-.51.06-.18.02-.37.17-.51.07-.07.18-.12.25-.19.12-.12.2-.29.28-.44.35-.61.68-1.22,1.04-1.83.32-.55.67-1.08,1.01-1.63.33.5.66,1.01.99,1.51.25.37.48.71.63,1.13.1.27.29.48.41.74.05.1.05.22.09.32.04.11.11.21.15.33.04.14.03.28.07.41.04.12.12.22.17.34.06.15.03.32.1.47.04.09.1.15.13.24.04.11.03.22.03.34,0,.1.04.19.06.29.04.17.04.36.07.53.06.35.23.67.33,1.01.16.52.28,1.04.5,1.54.44,1.02.97,2.03,1.3,3.08.17.53.32,1.08.51,1.6.09.24.21.46.32.7.08.16.12.34.2.5.04.08.09.15.19.19.1.03.22,0,.32.06.29.2-.01.63.09.88.08.21.36.11.38.36,0,.12-.03.26.06.36.1.11.3.1.38.21.07.1-.02.23-.02.34,0,.1.04.17.11.25.12.13.06.24.08.42.01.12.07.17.11.26.08.15,0,.42,0,.6,0,.28,0,.56,0,.84,0,.28,0,.55,0,.83,0,.1-.02.2.01.29.12.37.82.45,1.14.5.63.09,1.5.11,2.02-.31.24-.19.43-.43.73-.55.32-.13.68-.08,1.02-.05.97.07,1.93-.15,2.79-.55.49-.23.94-.53,1.35-.87.21-.17.51-.38.6-.64.11-.33-.21-.67-.46-.87-.27-.21-.58-.3-.93-.25-.76.1-1.46.47-2.24.3-.47-.1-.88-.35-1.3-.56-.14-.07-.5-.19-.55-.3,0-.03,0-.07,0-.1-.09-.36-.69-.49-.95-.69-.24-.18-.39-.43-.55-.67-.15-.22-.15-.31-.15-.56,0-.28-.27-.61-.57-.7-.39-.11-.37-.44-.4-.79-.03-.37-.04-.78-.21-1.13-.08-.15-.22-.24-.29-.39-.07-.14-.09-.3-.14-.45-.1-.32-.21-.63-.31-.95-.18-.55-.36-1.1-.54-1.64-.19-.56-.38-1.13-.58-1.69-.09-.25-.2-.49-.29-.73-.02-.05-.05-.12-.04-.18,0-.07.06-.12.07-.19.02-.12-.06-.25-.11-.35-.11-.2-.2-.3-.2-.53,0-.19,0-.3.11-.45.11-.16.08-.34.09-.52,0-.2.1-.41.04-.62-.04-.14-.16-.24-.19-.39-.03-.15.04-.32,0-.47-.05-.15-.23-.25-.29-.4-.06-.15.01-.29.01-.44,0-.11-.06-.2-.05-.3.01-.15.04-.2-.02-.35-.1-.23-.07-.42-.11-.66-.05-.27-.24-.54-.23-.82,0-.11.09-.2.04-.3-.03-.06-.1-.1-.13-.16-.05-.08-.07-.18-.09-.28-.11-.55-.24-1.09-.39-1.63-.14-.53-.24-1.07-.38-1.6-.13-.5-.31-.98-.51-1.46-.08-.19-.18-.39-.22-.59-.03-.14-.03-.29-.07-.43-.12-.38-.42-.72-.58-1.09-.1-.23-.15-.49-.16-.73.41,0,.23-.22.22-.5,0-.44.11-.88.14-1.32.03-.47.02-.93.01-1.4-.01-.62-.03-1.24-.06-1.86,1.12,1.12,2.51,1.93,3.85,2.8.55.36,1.11.7,1.71.98.3.14.81.29,1,.58.07.11.06.25.1.37.04.12.11.22.18.32.4.51.97.9,1.47,1.32.27.22.43.45.46.78,0,.11,0,.22-.02.33-.04.16-.14.31-.14.47,0,.1.05.21.16.25.11.04.2-.03.32,0,.08.02.12.07.21.05.1-.03.17-.14.26-.19.13-.09.29-.05.4-.13.06-.04.09-.11.11-.17.07-.17.14-.32.22-.48.14-.27.2-.67.1-.95-.1-.27-.26-.52-.39-.78-.08-.16-.13-.33-.26-.46-.16-.16-.37-.29-.55-.42-.29-.21-.57-.42-.83-.65-.25-.22-.5-.46-.72-.71-.22-.25-.39-.52-.61-.76-.52-.56-1.11-1.06-1.63-1.61-.52-.55-.9-1.17-1.34-1.77-.44-.6-.97-1.11-1.53-1.61-.52-.47-.96-.95-1.29-1.55-.35-.63-.65-1.3-.9-1.97-.03-.08-.13-.28-.1-.34,0-.01.06-.03.07-.05.04-.05.05-.11.06-.17.01-.23-.1-.47-.16-.69-.08-.3-.11-.6-.13-.91-.06-.66-.19-1.25-.48-1.85-.28-.58-.58-1.19-1.06-1.65-.15-.14-.32-.26-.5-.37-.05-.03-.22-.09-.23-.13,0-.02.02-.08.03-.1.02-.07.05-.13.08-.2.15-.32.43-.53.64-.81.21-.28.39-.43.76-.44.24,0,.63-.01.82-.17.13-.11.13-.3.11-.44,0-.06-.04-.12-.05-.17,0-.05.04-.12.05-.18,0-.09-.03-.17-.03-.26,0-.11.06-.22.05-.33,0-.07-.03-.14-.03-.21,0-.08.02-.15.04-.23.01-.08-.02-.19.01-.26.05-.1.17-.1.16-.27,0-.1-.05-.11.04-.16.09-.05.21-.02.31-.04.38-.07.23-.47.08-.68-.2-.28-.6-.53-.68-.86-.02-.09,0-.17.01-.25,0-.12,0-.24-.03-.36-.1-.5-.38-.97-.63-1.42.16-.02.31-.14.45-.2.1-.04.14-.09.15-.19.05-.52-.37-.86-.77-1.15-.24-.18-.48-.33-.8-.36-.22-.02-.44,0-.65-.02-.27-.02-.53-.06-.8-.08-.27-.01-.48.08-.75.13-.27.04-.56,0-.82.11-.13.06-.25.15-.38.21-.15.08-.31.12-.47.19-.12.05-.22.13-.33.21-.1.07-.21.1-.31.16-.2.1-.27.3-.34.48-.05.13-.1.27-.18.39-.08.11-.18.19-.25.31-.36.68-.2,1.6.04,2.28.15.43.31.88.59,1.25.15.19.26.33.31.56.03.2-.02.57.14.74.02.02.08.04.09.06.03.05-.01.21-.02.28-.02.13-.04.26-.07.38-.06.29-.12.64-.37.83-.4.3-.69.75-1,1.12-.75.89-1.44,1.8-1.93,2.84-.24.51-.45,1.04-.61,1.58-.11.39-.14.8-.3,1.18-.05.12-.18.32-.14.46.04.11.07.08.02.23-.09.27-.17.53-.25.8-.16.59-.27,1.2-.38,1.8-.09.48-.21.98-.18,1.47.02.35.15.68.17,1.03.02.53-.06,1.07-.04,1.6.04,1.05.24,2.14.58,3.14.07.21.28.53.25.74-.03.24-.11.48-.13.73-.03.29-.04.59-.02.88.01.22.09.45.09.67,0,.16-.12.35-.15.52-.06.28-.09.57-.1.86,0,.34.04.71-.08,1.04-.05.15-.41.48-.16.64.1.06.24,0,.35.02.12.03.13.13.2.21.08.09.21.12.34.12-.16.64-.36,1.27-.54,1.91-.17.6-.25,1.2-.33,1.82-.02.15-.05.29-.12.42-.06.11-.12.21-.14.33-.04.22.03.48-.13.66-.05.06-.13.1-.17.17-.07.11-.07.24-.1.35-.05.16-.14.29-.2.44-.05.14-.08.28-.15.41-.07.12-.18.21-.26.32-.06.09-.08.17-.12.27-.06.13-.22.16-.3.28-.09.13-.05.24-.19.35-.13.1-.27.16-.39.28-.15.15-.27.33-.42.48-.46.44-.94.84-1.34,1.34-.42.52-.79,1.06-1.14,1.62-.35.55-.66,1.12-.94,1.71-.26.54-.47,1.11-.83,1.6-.36.5-.83.92-1.2,1.41-.17.23-.3.42-.27.7.03.3-.07.61-.21.88-.14.25-.31.31-.57.45-.22.12-.45.27-.55.49-.06.13-.1.27-.17.41-.03.05-.07.11-.07.17,0,.04.01.07.04.1Z"/>
    </g>
    <g id="POLYLINE-2" data-name="POLYLINE">
      <path class="cls-2" d="m238.1,170.93c-.38-.63-.96-1.11-1.37-1.71-.24-.35-.21-.72-.32-1.12-.09-.34-.38-.52-.61-.77-.61-.64-1.06-1.46-1.55-2.19-1.09-1.62-2.32-3.13-3.5-4.67-.58-.76-.99-1.58-1.47-2.4-.45-.77-1.07-1.39-1.6-2.09-.44-.59-.77-1.26-1.29-1.78-.41-.41-.94-.66-1.35-1.06-.48-.47-.78-1.11-.43-1.74.18-.33.34-.55.34-.94-.01-.86.08-1.66.19-2.52.11-.86.12-1.71.12-2.57,0-.92.07-1.82.12-2.74.02-.34.01-.69.08-1.02.05-.24.14-.46.14-.71,0-.17-.03-.34-.07-.5-.02-.09-.05-.17-.08-.25-.05-.18,0-.2.1-.39.99-1.59,1.72-3.35,2.23-5.16.2-.69.35-1.39.35-2.12,0-.18-.09-.53-.02-.69.01-.03.07-.05.09-.08.03-.05.06-.09.09-.15.1-.29-.03-.68-.1-.95-.18-.69-.38-1.34-.4-2.06-.02-.76.15-1.53.03-2.29-.08-.47-.3-.9-.33-1.38-.05-.73.18-1.48.31-2.19.16-.89.16-1.78.22-2.67.05-.81.25-1.5.55-2.25.23-.56.38-1.09.41-1.7.04-.89-.02-1.78.05-2.67.07-.88.25-1.75.24-2.64-.02-1.76-.56-3.62-1.24-5.23-.66-1.55-1.68-2.84-2.82-4.07-.15-.16-.3-.33-.46-.49-.11-.12-.56-.45-.57-.61,0-.03.1-.14.11-.19.09-.32-.13-.77-.21-1.06-.06-.21-.05-.48-.13-.69-.02-.06-.02-.1-.08-.13-.18-.1-.58.15-.71.22-.06-.13-.11-.28-.13-.42-.01-.08-.04-.24,0-.3,0-.01.05,0,.06-.02.05-.06.11-.1.15-.17.1-.18.14-.38.24-.56.15-.27.34-.51.47-.79.24-.51.21-1.07.22-1.61.01-.59.17-1.02.33-1.58.1-.36.12-.72.09-1.09-.05-.45-.17-.88-.24-1.33-.03-.2-.03-.41-.11-.6-.15-.36-.52-.46-.75-.74-.13-.16-.07-.33-.14-.51-.12-.34-.56-.56-.82-.78-.22-.19-.42-.52-.73-.59-.14-.03-.28,0-.42-.02-.17-.03-.32-.13-.49-.17-.37-.1-.75.02-1.13-.07-.43-.1-.66-.05-1.09-.03-.33.02-.68.01-1,.09-.21.05-.38.16-.58.24-.35.14-.75.21-1.13.22-.34,0-.5,0-.77.21-.16.13-.31.25-.51.33-.24.1-.52.11-.75.24-.12.07-.18.13-.13.26.07.18.3.24.43.37.18.19.23.34.51.37-.64.79-1.2,1.88-1.17,2.92.02.5.4.8.18,1.29-.18.41-.52.71-.81,1.03-.18.2-.38.43-.4.7-.01.14.02.26.13.35.17.14.51.08.64.26.13.19-.11.55-.17.71-.07.2,0,.22.05.41.03.15-.07.3-.02.46.05.14.19.23.22.39.04.23-.15.42-.21.63-.05.18-.04.38.04.55.11.21.32.31.53.39.39.15.73.26,1,.6.37.47.72.72,1.23,1.06.46.3.84.68,1.16,1.13.08.11.24.28.26.41.03.16-.21.33-.34.47-.18.18-.36.35-.51.56-.18.25-.35.5-.46.79-.21.56-.21,1.11-.28,1.69-.05.4-.26.76-.33,1.16-.11.58-.06,1.18-.23,1.75-.19.64-.6,1.17-.88,1.76-.73,1.51-.42,3.24-.77,4.83-.2.9-.6,1.72-.92,2.58-.26.7-.4,1.4-.47,2.14-.11,1.06-.24,2.11-.36,3.16-.08.74-.14,1.5,0,2.24.17.9.49,1.73.58,2.65.08.86.05,1.72-.02,2.58-.03.37-.15.87.02,1.22.07.15.12-.02.08.21-.08.44-.31.89-.48,1.31-.28.68-.7,1.23-1.1,1.84-.23.36-.25.81-.27,1.22-.02.44-.14,1.12.08,1.54.04.07.08.12.14.17.22.19.46.38.68.56.34.28.71.45,1.16.46.1,0,.2,0,.3,0,.17-.01.2-.06.25.12.05.18.05.4.05.59,0,.88-.08,1.73-.01,2.62.08,1.03.2,2.06.25,3.09.09,1.75.34,3.63-.09,5.34-.36,1.47-.62,3.12-.03,4.58.24.59.66,1.09.91,1.68.22.52.09,1.03.12,1.58.03.54.26,1.06.31,1.6.05.59-.17,1.17-.21,1.75-.05.88.01,1.76-.15,2.63-.16.83-.34,1.65-.48,2.49-.2,1.24-.4,2.48-.6,3.72-.13.78-.31,1.59-.35,2.38-.01.28,0,.55.14.8.12.21.33.41.33.67,0,.19-.11.38-.24.51-.27.29-.61.45-.83.8-.17.25-.36.58-.38.89,0,.06.01.12.02.18,0,.16.11.09-.1.23-1.46,1.02-3.06,1.74-4.79,2.1-.91.19-1.66.61-2.17,1.42-.25.4-.41.9-.06,1.28.27.29.69.39,1.06.45.69.11,1.41.09,2.11.09,2.26,0,4.52.03,6.78.02.96,0,1.92-.04,2.88-.07.4-.01,1.03.07,1.4-.15.55-.32.28-1.3.17-1.76-.1-.44-.2-.88-.26-1.33-.04-.27-.08-.43,0-.67.17-.58.01-1.24.07-1.84.18-1.79,1.07-3.42,1.26-5.21.22-2.04.49-4.06.79-6.1.27-1.89.51-3.78.63-5.69.42.5.85,1,1.27,1.49,1.67,1.96,3.29,3.96,4.88,5.99.8,1.01,1.59,2.04,2.3,3.12.61.93.99,1.97,1.58,2.91.32.51.7.77,1.2,1.1.3.2.29.3.32.63,0,.07.01.14.05.2.02.04.06.07.08.11.07.17-.01.41-.05.61-.17.92-.2,1.96-.62,2.81-.19.38-.49.7-.83.95-.6.44-1.42.58-1.94,1.11-.52.53-.53,1.36.21,1.64.81.3,1.86.18,2.69.13.57-.03,1.11-.14,1.61-.42.92-.51,1.58-1.36,2.23-2.17.71-.89,1.47-1.64,2.38-2.31.88-.65,1.92-1.23,2.63-2.08.26-.31.45-.67.39-1.09-.1-.67-.67-1.22-1.15-1.65-.84-.73-1.71-1.42-2.71-1.92.02-.23-.09-.44-.2-.63Z"/>
    </g>
    <g id="POLYLINE-3" data-name="POLYLINE">
      <path class="cls-2" d="m306.73,52.59c-.01.66-.65,1.1-.8,1.71-.05.18-.05.35.11.47.18.13.59-.03.7.19.05.09-.06.23-.04.35.04.15.18.17.24.28.12.24-.07.33-.07.54,0,.21.13.18.24.36.15.23.02.49.05.76.1.79,1.28.25,1.76.25-.03.27-.03.54.04.81.18.65.42,1.02.28,1.68-.03.14-.02.34-.07.47-.06.15-.22.27-.33.4-.23.27-.42.55-.56.87-.26.58-.32,1.23-.66,1.78-.44.72-1.16,1.23-1.51,2.02-.48,1.09-.34,2.4.49,3.26.41.42.96.81,1.09,1.41.14.64.08,1.37.09,2.02,0,.34.08.78,0,1.12-.07.34-.55.64-.81.88-1.15,1.03-2.39,2.01-3.69,2.85-.67.43-1.38.81-2.06,1.24-.43.27-.86.6-1.36.75-.79.23-1.6.05-2.37.22-.29.06-.52.24-.78.39-.26.14-.57.24-.79.44-.34.32-.7,1.1-.23,1.41.24.16.45.44.71.58.23.12.49.12.72.25.19.11.21.16.43.11.41-.09.79-.39,1.18-.55.49-.19,1.01-.33,1.49-.57.46-.23.86-.55,1.31-.81.71-.4,1.45-.74,2.18-1.1,1.43-.71,2.87-1.36,4.24-2.18.25.66.07,1.54.04,2.21-.02.49-.12,1.1.04,1.58.01.03.09.04.09.06.08.24-.04.54-.03.81,0,.17.09.31.12.48.17.77.16,1.62.18,2.4,0,.18.1.39.07.57-.04.19-.21.37-.27.57-.27.9-.61,1.77-.9,2.66-.37,1.14-.6,2.32-.86,3.49-.28,1.29-.46,2.59-.69,3.89-.2,1.15-.59,2.25-.77,3.4-.09.59-.18,1.25,0,1.84.12.41.05.81.16,1.21.08.32.26.38.22.76-.11.93-.16,1.86-.37,2.78-.34,1.5-.38,3.11-.57,4.64-.06.49-.07,1.27-.41,1.67-.09.11-.22.15-.31.27-.33.42-.29,1.06-.44,1.54-.09.29-.3.51-.37.8-.04.17-.02.3-.12.44-.17.23-.5.3-.65.55-.04.06-.02.15-.05.2-.58,1.07-2.21,1.5-3.26,1.77-.88.23-1.54.38-2.44.33-.26-.01-.57-.04-.8.12-.31.23-.39.8-.26,1.14.12.32.47.52.75.69.73.45,1.55.8,2.39,1.01,1.02.25,2.08.29,3.13.3,1.19.02,2.46.13,3.64,0,.36-.04.76-.17.84-.56.06-.26,0-.55,0-.82,0-.41.13-.93.05-1.34,0-.01-.02-.3-.12-.24.03-.02.07-.05.08-.09.02-.19.14-.35.16-.55.01-.21-.05-.3.04-.51.15-.35.45-.59.52-.98.04-.24.01-.32.16-.51.18-.23.23-.22.29-.5.14-.64.28-.96.7-1.45.48-.55.55-1.4.71-2.08.34-1.36.79-2.68,1.08-4.05.22-.98.39-2.04.3-3.05-.04-.41-.1-.63-.04-1.02.03-.2-.02-.21-.07-.4-.04-.16.01-.26,0-.43,0-.14-.09-.25-.12-.38-.05-.24.04-.36.1-.57.04-.15,0-.28.02-.44.02-.15.13-.27.16-.42.04-.23-.02-.45.04-.68.05-.18.05-.27.07-.48.05-.64.44-1.19.64-1.77.2-.59.42-1.09.73-1.65.29,1.22.54,2.53,1.03,3.69.15.35.37.66.54,1,.1.19.13.4.23.59.13.26.33.49.47.75.18.31.35.72.61.97.08.08.15.15.27.16.13,0,.14-.15.26-.07.05.04.1.31.19.4.11.11.22.13.3.28.09.19.09.36.2.54.19.29.17.36.26.67.12.39.49.75.66,1.13.62,1.31,1.37,2.5,2.07,3.76.31.55.59,1.12.92,1.66.05.08.13.16.15.25.03.17-.12.29-.14.45-.02.22.14.57.23.76.08.17.25.17.34.3.1.15,0,.09-.06.28-.04.14-.02.23.03.37.07.16.19.28.24.45.04.12.02.28.11.38.1.12.24.08.28.24,0,.03-.05.16-.06.21-.02.17-.01.4,0,.57,0,.04.05.09.05.11,0,.17-.06.39-.16.58-.34.7-1.09,1.28-1.67,1.76-.54.45-1.19.87-1.9.98-.41.07-.95-.06-1.31.19-.33.22-.44.85-.25,1.19.09.17.23.23.41.27.48.12,1.03.06,1.52.06.71,0,1.43.03,2.14-.02,1.44-.11,2.83-.62,4.25-.87.67-.12,1.44-.12,2.03-.51.91-.59.18-1.63-.1-2.43-.18-.51-.5-1.03-.62-1.51-.09-.36-.17-.68-.33-1.01-.12-.24-.07-.47-.12-.73-.04-.21-.16-.25-.21-.41-.04-.12.02-.25-.01-.37-.09-.4-.44-.58-.67-.87-.23-.27-.18-.68-.23-1.01-.06-.42-.11-.82-.33-1.17-.15-.24-.15-.36-.2-.69-.14-1.06-.68-2.05-1.07-3.03-.28-.7-.54-1.42-.88-2.1-.26-.53-.62-.99-.94-1.48-.12-.18-.18-.4-.31-.57-.1-.13-.24-.22-.34-.35-.12-.17-.19-.29-.33-.44-.11-.12-.17-.21-.22-.36-.04-.12.02-.18-.09-.29-.1-.1-.2-.04-.3-.1-.17-.12-.14-.3-.2-.45-.04-.12-.12-.21-.17-.34-.03-.08,0-.17-.04-.25-.03-.06-.12-.08-.14-.14-.07-.17-.01-.35-.06-.53-.09-.34-.23-.46-.23-.82,0-.28.01-.2-.16-.39-.12-.13-.16-.15-.2-.34-.08-.34-.2-.73-.16-1.08.04-.34-.02-.6-.05-.96-.12-1.42-.1-2.81-.28-4.22-.12-.91-.3-1.87-.26-2.79.01-.38.24-.52.45-.82.3-.42.52-.9.73-1.37.38-.83.77-1.7.85-2.62.08-.97-.06-2.04-.35-2.98-.09-.29-.39-.63-.43-.9,0-.03.05-.08.05-.13-.02-.19-.05-.22-.16-.39-.11-.16-.17-.27-.16-.48.01-.19.13-.35.04-.54-.08-.16-.35-.18-.41-.35-.05-.15.09-.3.08-.45-.01-.12-.09-.3-.1-.44-.02-.21-.07-.27-.2-.42-.12-.16-.21-.25-.22-.46,0-.21.16-.4.13-.61-.02-.17-.19-.26-.24-.42-.04-.14.04-.29.02-.43-.02-.16-.16-.28-.17-.44,0-.13.09-.23.09-.37,0-.13-.12-.23-.11-.37.01-.15.14-.22.12-.38-.04-.24-.21-.36-.18-.65.02-.21.13-.4.13-.61,0-.5.05-.92.22-1.42.12-.33.35-.6.5-.93.51,1.26.99,2.52,1.52,3.77.82,1.94.47,3.99.68,6.04.13,1.26.21,2.58.1,3.84-.08.93-.11,1.78-.5,2.62-.29.62-.56,1.25-.54,1.94.01.43.05.86,0,1.29-.02.17-.12.38-.08.55.08.38.22.05.42.15.35.18-.38.91-.21,1.2.19.33.56-.13.67-.27.14-.18.06-.12.22-.21.15-.09.36-.15.53-.22.17-.08.27-.21.43-.3.18-.1.41-.07.57-.2.09-.07.1-.17.2-.24.16-.1.29-.06.4-.22.3-.45.16-1.36.16-1.86-.02-1.02-.15-2.01-.08-3.03.08-1.16.03-2.32.15-3.49.14-1.35.16-2.72.13-4.08-.02-.84,0-1.73-.26-2.54-.07-.23-.19-.45-.22-.7-.04-.37-.02-.75-.07-1.13-.19-1.39-.58-2.76-.98-4.11-.2-.67-.41-1.34-.63-2.01-.2-.6-.51-1.22-.64-1.82-.16-.71-.14-1.48-.4-2.18-.21-.59-.71-.94-1.07-1.43-.36-.48-.58-.72-.71-1.29-.28-1.22-.24-2.52-.37-3.77-.14-1.31-.29-2.66-.69-3.92-.28-.87-.54-1.84-.99-2.64-.56-1-1.53-1.91-2.7-2.1-1.65-.27-3.31.06-4.71.96-.88.57-1.56,1.38-1.72,2.44-.08.56.16,1.13.75,1.28.03.15.05.31.05.46Z"/>
    </g>
    <g id="POLYLINE-4" data-name="POLYLINE">
      <path class="cls-2" d="m135.03,76.02c0,1.06-.12,2.22-.51,3.21-.05.12-.48.83-.25.98.12.07.26-.11.38,0,.13.12-.11.18.12.25.07.02.64-.1.77-.15.26-.1.64-.46.87-.64.4-.32.47-.88.77-1.28.36-.48.47-.78.56-1.41.36-2.44,1.65-4.71,1.9-7.18.16-1.62-.5-3.38-1.58-4.58-1-1.12-2.39-1.72-3.88-1.75-.77-.02-1.59.03-2.25.48-.61.41-1.04,1.05-1.41,1.67-1.65,2.81-2.52,6.02-4.03,8.91-.42.8-1.22,2.12-.2,2.85.13.1.29.15.45.19-.16.54-.4,1-.64,1.51-.26.53-.43,1.08-.68,1.62-.59,1.24-.85,2.54-1.29,3.83-.47,1.36-.76,2.9-.79,4.34,0,.36.01.72.05,1.08.05.55-.11.99-.25,1.52-.17.63-.31,1.26-.39,1.9-.1.82-.46,1.54-.54,2.37-.16,1.84-.45,3.67-.49,5.51-.04,1.75,0,3.55-.36,5.27-.18.87-.61,1.64-.73,2.53-.07.57-.22,1.38-.08,1.95.02.07.02.15.07.21.12.14.31.04.42.14.11.1.03.32.12.45.09.15.21.19.37.23.43.11.16-.03.39.29.1.14.14.16.31.19.29.06.42-.07.53.2.11.27-.15.81.13,1.04.3.24.57-.13.63-.39.05-.19.02-.4.09-.59.06-.15.19-.27.26-.42.09-.22.08-.45.11-.68.08-.66.29-1.28.41-1.93.05-.29.03-.59,0-.88,0,0,.66-.03.75.05.16.13.05.49.02.72-.07.56-.18,1.11-.32,1.65-.3,1.1-.77,2.14-1.03,3.24-.26,1.09-.4,2.21-.73,3.28-.29.92-.75,1.78-1.18,2.63-.43.86-.84,1.75-1.39,2.55-.5.74-1.15,1.37-1.64,2.12-1.19,1.79-1.7,3.77-2.23,5.81-.64,2.47-1.6,4.84-2.64,7.16-.11-.1-.26-.34-.43-.27-.08.03-.13.26-.15.31-.2.51-.34,1.05-.55,1.56-.42,1.05-1.1,2.07-1.4,3.16-.05.16-.06.31-.02.47.2.77,1.26,1.13,1.93,1.32,1.31.39,2.66.65,3.98,1.01,1.14.31,2.31.58,3.49.65.78.04,1.66.06,2.41-.15.19-.05.38-.12.52-.27.28-.31.32-.97.1-1.32-.42-.69-1.7-.67-2.35-.82-.97-.22-2.02-.81-2.52-1.7-.26-.46-.41-1-.48-1.52-.07-.5.08-.97.06-1.46-.02-.43-.23-.72-.51-.92-.02-.01-.12.06-.13.07.53-2.01,1.71-3.84,2.8-5.58.62-1,1.27-1.98,1.81-3.02.47-.9.77-1.87,1.21-2.78.52-1.07,1.34-1.71,2.26-2.44,1.2-.95,1.77-2.18,2.32-3.58.41-1.03.97-1.98,1.44-2.98.65-1.36,1.28-2.73,1.92-4.1.79,2.02,1.7,4.16,3,5.91.72.97,1.36,1.92,1.83,3.04.31.74.48,1.54.89,2.23.18.31.28.52.3.88.04.91-.03,1.79.11,2.69.27,1.67,1.1,3.06,1.99,4.47,1.5,2.38,2.79,4.87,4.31,7.24-.2.04,0,.53.03.6.66,1.48,1.26,2.99,1.71,4.56.13.46.28.84.8.95.27.06.55,0,.81-.08.93-.28,1.8-.75,2.72-1.06,1.5-.51,3.28-.77,4.62-1.69.86-.59,2.14-1.58,2.47-2.63.32-1.03-.51-1.57-1.45-1.38-.6.13-1.15.42-1.76.52-.67.1-1.36.05-2.02-.02-.69-.08-1.4-.19-2.04-.46-.55-.23-.99-.63-1.49-.95-.3-.19-.6-.35-.95-.44-.15-.04-.09.05-.25-.05-.35-.22-.65-.84-.86-1.19-.25-.4-.46-.82-.65-1.25-.41-.91-.67-1.88-.93-2.84-.29-1.07-.57-2.14-.96-3.18-.36-.95-.85-1.86-1.13-2.84-.3-1.02-.14-1.87-.12-2.91.02-1.84-.86-3.54-1.41-5.25-.75-2.32-1.46-4.64-2.28-6.94-.24-.68-.62-1.45-.73-2.11-.02-.11-.02-.2-.05-.32-.19-.57-.64-1.03-.89-1.58-.05-.12-.19-.35-.16-.49.03-.15.08-.04.14-.14.18-.3.05-.49.02-.89-.07-.83,0-1.67-.03-2.5-.04-1.35-.08-2.69-.12-4.04-.04-1.17-.1-2.34-.15-3.51,1.5.73,3.03,1.41,4.57,2.04,1.58.65,3.22,1.21,4.72,2.03.43.23.85.49,1.31.64.54.19,1.11.26,1.65.42.33.1.71.38,1.07.32.14-.02.25-.13.38-.19.22-.11.47-.14.68-.26.22-.13.34-.35.57-.44.14-.06.21,0,.34-.11.19-.17.19-.49.16-.72-.04-.37-.18-.66-.47-.89-.54-.44-1.37-.9-2.09-.93-.93-.04-1.84.2-2.76-.07-.51-.15-.98-.45-1.44-.69-.82-.43-1.65-.86-2.46-1.31-1.41-.79-2.77-1.65-4.12-2.54-.47-.31-.94-.63-1.41-.94-.33-.22-.62-.27-.58-.64.09-.78.47-1.55.66-2.3.38-1.51.29-3.37-.68-4.65-.55-.73-1.27-1.29-1.77-2.07-.67-1.06-1.37-2.14-1.95-3.24-.29-.55-.37-1.19-.22-1.79.08-.32.21-.62.36-.91.1-.2.39-.9.62-.97.15-.05.64.18.84.19Z"/>
    </g>
    <text class="cls-9" transform="translate(453.44 123.44)"><tspan x="0" y="0">RENTERS</tspan></text>
  </g>
</svg>